<?xml version="1.0" standalone="no"?>
<!DOCTYPE svg PUBLIC "-//W3C//DTD SVG 1.1//EN" "http://www.w3.org/Graphics/SVG/1.1/DTD/svg11.dtd" >
<svg xmlns="http://www.w3.org/2000/svg">
<metadata>Generated by IcoMoon</metadata>
<defs>
<font id="uicons" horiz-adv-x="1024">
<font-face units-per-em="1024" ascent="960" descent="-64" />
<missing-glyph horiz-adv-x="1024" />
<glyph unicode="&#x20;" horiz-adv-x="512" d="" />
<glyph unicode="&#xe900;" glyph-name="app-store" horiz-adv-x="896" d="M800 896h-704c-53 0-96-43-96-96v-704c0-53 43-96 96-96h704c53 0 96 43 96 96v704c0 53-43 96-96 96zM254 191c-11-19.2-35.6-25.6-54.6-14.6-19.2 11-25.6 35.6-14.6 54.6l28.6 49.4c32.2 9.8 58.6 2.2 79.2-22.8l-38.6-66.6zM531.8 298.8h-363.8c-22 0-40 18-40 40s18 40 40 40h102l130.8 226.4-41 70.8c-11 19.2-4.4 43.6 14.6 54.6 19.2 11 43.6 4.4 54.6-14.6l17.8-30.8 17.8 30.8c11 19.2 35.6 25.6 54.6 14.6 19.2-11 25.6-35.6 14.6-54.6l-171.6-297.2h124.2c40.4 0 63-47.4 45.4-80zM728 298.8h-58l39.2-67.8c11-19.2 4.4-43.6-14.6-54.6-19.2-11-43.6-4.4-54.6 14.6-65.8 113.8-115 199.4-148 256.2-33.4 58-9.6 116 14.2 135.6 26.2-45.4 65.4-113.4 117.8-204h104c22 0 40-18 40-40 0-22.2-18-40-40-40z" />
<glyph unicode="&#xe901;" glyph-name="discord" horiz-adv-x="896" d="M594.432 473.6c0-31.232-23.040-56.832-52.224-56.832-28.672 0-52.224 25.6-52.224 56.832s23.040 56.832 52.224 56.832c29.184 0 52.224-25.6 52.224-56.832zM355.328 530.432c-29.184 0-52.224-25.6-52.224-56.832s23.552-56.832 52.224-56.832c29.184 0 52.224 25.6 52.224 56.832 0.512 31.232-23.040 56.832-52.224 56.832zM896 854.528v-918.528c-128.988 113.988-87.736 76.256-237.568 215.552l27.136-94.72h-580.608c-57.856 0-104.96 47.104-104.96 105.472v692.224c0 58.368 47.104 105.472 104.96 105.472h686.080c57.856 0 104.96-47.104 104.96-105.472zM750.080 369.152c0 164.864-73.728 298.496-73.728 298.496-73.728 55.296-143.872 53.76-143.872 53.76l-7.168-8.192c87.040-26.624 127.488-65.024 127.488-65.024-121.622 66.658-264.488 66.67-382.464 14.848-18.944-8.704-30.208-14.848-30.208-14.848s42.496 40.448 134.656 67.072l-5.12 6.144s-70.144 1.536-143.872-53.76c0 0-73.728-133.632-73.728-298.496 0 0 43.008-74.24 156.16-77.824 0 0 18.944 23.040 34.304 42.496-65.024 19.456-89.6 60.416-89.6 60.416 7.532-5.272 19.952-12.106 20.992-12.8 86.42-48.396 209.176-64.252 319.488-17.92 17.92 6.656 37.888 16.384 58.88 30.208 0 0-25.6-41.984-92.672-60.928 15.36-19.456 33.792-41.472 33.792-41.472 113.152 3.584 156.672 77.824 156.672 77.824z" />
<glyph unicode="&#xe902;" glyph-name="dribbble" d="M512 944c-273.496 0-496-222.504-496-496s222.504-496 496-496 496 222.504 496 496-222.504 496-496 496zM839.94 715.268c59.006-72.092 94.738-163.914 95.67-263.91-13.968 2.954-154.036 31.364-295.004 13.636-11.504 28.082-22.362 52.786-37.234 83.228 156.642 63.954 227.636 154.964 236.568 167.046zM792.842 764.26c-7.62-10.854-71.394-96.572-222.042-153.038-69.424 127.552-146.37 232.336-158.080 248.016 134.352 32.386 275.932-2.54 380.122-94.978zM331.882 830.76c11.17-15.318 86.876-120.232 157.074-245.018-198.174-52.626-372.72-51.868-391.668-51.618 27.472 131.466 116.068 240.73 234.594 296.636zM88.34 447.354c0 4.332 0.086 8.644 0.216 12.946 18.536-0.38 223.84-3.026 435.412 60.292 12.128-23.736 23.714-47.83 34.348-71.898-153.198-43.15-292.388-167.054-361.062-284.612-67.666 75.108-108.914 174.458-108.914 283.272zM251.954 113.128c44.254 90.466 164.356 207.244 335.158 265.512 59.48-154.566 84.078-284.106 90.378-321.276-136.224-58.026-300.030-42.106-425.536 55.764zM748.714 96.15c-4.342 25.772-26.892 149.794-82.304 302.066 132.76 21.252 249.4-13.536 263.894-18.11-18.884-117.882-86.546-219.688-181.59-283.956z" />
<glyph unicode="&#xe903;" glyph-name="facebook" d="M1008 448c0 274-222 496-496 496s-496-222-496-496c0-247.56 181.38-452.76 418.5-490v346.62h-126v143.38h126v109.28c0 124.3 74 192.96 187.34 192.96 54.28 0 111.040-9.68 111.040-9.68v-122h-62.56c-61.6 0-80.82-38.24-80.82-77.46v-93.1h137.56l-22-143.38h-115.56v-346.62c237.12 37.24 418.5 242.44 418.5 490z" />
<glyph unicode="&#xe904;" glyph-name="facebook-messenger" d="M513.1 944c-280.060 0-497.1-204.68-497.1-481.14 0-144.6 59.42-269.56 156.14-355.88 16.7-15.020 13.26-23.72 16.1-116.46 0.76-21.405 18.295-38.469 39.816-38.469 5.767 0 11.248 1.225 16.197 3.43l-0.253-0.101c105.82 46.6 107.18 50.28 125.12 45.4 306.58-84.38 638.88 111.82 638.88 462.080 0 276.46-214.82 481.14-494.9 481.14zM811.58 573.74l-146-231.14c-13.469-20.994-36.69-34.705-63.113-34.705-16.85 0-32.397 5.576-44.898 14.983l0.191-0.138-116.16 86.94c-4.951 3.746-11.212 6-18 6s-13.049-2.254-18.075-6.055l0.075 0.055-156.74-118.88c-20.92-15.86-48.32 9.2-34.22 31.34l146 231.14c13.464 20.998 36.684 34.714 63.108 34.714 16.853 0 32.403-5.579 44.903-14.992l-0.191 0.138 116.12-86.92c4.951-3.746 11.212-6 18-6s13.049 2.254 18.075 6.055l-0.075-0.055 156.82 118.76c20.88 15.96 48.28-9.080 34.18-31.24z" />
<glyph unicode="&#xe905;" glyph-name="github" horiz-adv-x="992" d="M331.8 165.2c0-4-4.6-7.2-10.4-7.2-6.6-0.6-11.2 2.6-11.2 7.2 0 4 4.6 7.2 10.4 7.2 6 0.6 11.2-2.6 11.2-7.2zM269.6 174.2c-1.4-4 2.6-8.6 8.6-9.8 5.2-2 11.2 0 12.4 4s-2.6 8.6-8.6 10.4c-5.2 1.4-11-0.6-12.4-4.6zM358 177.6c-5.8-1.4-9.8-5.2-9.2-9.8 0.6-4 5.8-6.6 11.8-5.2 5.8 1.4 9.8 5.2 9.2 9.2-0.6 3.8-6 6.4-11.8 5.8zM489.6 944c-277.4 0-489.6-210.6-489.6-488 0-221.8 139.6-411.6 339-478.4 25.6-4.6 34.6 11.2 34.6 24.2 0 12.4-0.6 80.8-0.6 122.8 0 0-140-30-169.4 59.6 0 0-22.8 58.2-55.6 73.2 0 0-45.8 31.4 3.2 30.8 0 0 49.8-4 77.2-51.6 43.8-77.2 117.2-55 145.8-41.8 4.6 32 17.6 54.2 32 67.4-111.8 12.4-224.6 28.6-224.6 221 0 55 15.2 82.6 47.2 117.8-5.2 13-22.2 66.6 5.2 135.8 41.8 13 138-54 138-54 40 11.2 83 17 125.6 17s85.6-5.8 125.6-17c0 0 96.2 67.2 138 54 27.4-69.4 10.4-122.8 5.2-135.8 32-35.4 51.6-63 51.6-117.8 0-193-117.8-208.4-229.6-221 18.4-15.8 34-45.8 34-92.8 0-67.4-0.6-150.8-0.6-167.2 0-13 9.2-28.8 34.6-24.2 200 66.4 335.6 256.2 335.6 478 0 277.4-225 488-502.4 488zM194.4 254.2c-2.6-2-2-6.6 1.4-10.4 3.2-3.2 7.8-4.6 10.4-2 2.6 2 2 6.6-1.4 10.4-3.2 3.2-7.8 4.6-10.4 2zM172.8 270.4c-1.4-2.6 0.6-5.8 4.6-7.8 3.2-2 7.2-1.4 8.6 1.4 1.4 2.6-0.6 5.8-4.6 7.8-4 1.2-7.2 0.6-8.6-1.4zM237.6 199.2c-3.2-2.6-2-8.6 2.6-12.4 4.6-4.6 10.4-5.2 13-2 2.6 2.6 1.4 8.6-2.6 12.4-4.4 4.6-10.4 5.2-13 2zM214.8 228.6c-3.2-2-3.2-7.2 0-11.8s8.6-6.6 11.2-4.6c3.2 2.6 3.2 7.8 0 12.4-2.8 4.6-8 6.6-11.2 4z" />
<glyph unicode="&#xe906;" glyph-name="gitlab" d="M210.4 910.2c-6.2 17.8-31.4 17.8-37.8 0l-113-349.6h264c-0.2 0-113.2 349.6-113.2 349.6zM1.8 384.6c-5.2-16 0.6-33.8 14.2-44l495.8-368-452.4 588zM323.4 560.6l188.6-588 188.6 588zM1022.2 384.6l-57.6 176-452.6-588 495.8 368c13.8 10.2 19.4 28 14.4 44zM851.4 910.2c-6.2 17.8-31.4 17.8-37.8 0l-113.2-349.6h264z" />
<glyph unicode="&#xe907;" glyph-name="google" horiz-adv-x="976" d="M976 436.4c0-283-193.8-484.4-480-484.4-274.4 0-496 221.6-496 496s221.6 496 496 496c133.6 0 246-49 332.6-129.8l-135-129.8c-176.6 170.4-505 42.4-505-236.4 0-173 138.2-313.2 307.4-313.2 196.4 0 270 140.8 281.6 213.8h-281.6v170.6h472.2c4.6-25.4 7.8-49.8 7.8-82.8z" />
<glyph unicode="&#xe908;" glyph-name="google-play" d="M650.6 491.4l-441.4 442.6 561.6-322.4-120.2-120.2zM94 960c-26-13.6-43.4-38.4-43.4-70.6v-882.6c0-32.2 17.4-57 43.4-70.6l513.2 512-513.2 511.8zM944.4 508.8l-117.8 68.2-131.4-129 131.4-129 120.2 68.2c36 28.6 36 93-2.4 121.6zM209.2-38l561.6 322.4-120.2 120.2-441.4-442.6z" />
<glyph unicode="&#xe909;" glyph-name="instagram" horiz-adv-x="896" d="M448.2 678c-127.2 0-229.8-102.6-229.8-229.8s102.6-229.8 229.8-229.8 229.8 102.6 229.8 229.8-102.6 229.8-229.8 229.8zM448.2 298.8c-82.2 0-149.4 67-149.4 149.4s67 149.4 149.4 149.4 149.4-67 149.4-149.4-67.2-149.4-149.4-149.4zM741 687.4c0-29.8-24-53.6-53.6-53.6-29.8 0-53.6 24-53.6 53.6s24 53.6 53.6 53.6 53.6-24 53.6-53.6zM893.2 633c-3.4 71.8-19.8 135.4-72.4 187.8-52.4 52.4-116 68.8-187.8 72.4-74 4.2-295.8 4.2-369.8 0-71.6-3.4-135.2-19.8-187.8-72.2s-68.8-116-72.4-187.8c-4.2-74-4.2-295.8 0-369.8 3.4-71.8 19.8-135.4 72.4-187.8s116-68.8 187.8-72.4c74-4.2 295.8-4.2 369.8 0 71.8 3.4 135.4 19.8 187.8 72.4 52.4 52.4 68.8 116 72.4 187.8 4.2 74 4.2 295.6 0 369.6zM797.6 184c-15.6-39.2-45.8-69.4-85.2-85.2-59-23.4-199-18-264.2-18s-205.4-5.2-264.2 18c-39.2 15.6-69.4 45.8-85.2 85.2-23.4 59-18 199-18 264.2s-5.2 205.4 18 264.2c15.6 39.2 45.8 69.4 85.2 85.2 59 23.4 199 18 264.2 18s205.4 5.2 264.2-18c39.2-15.6 69.4-45.8 85.2-85.2 23.4-59 18-199 18-264.2s5.4-205.4-18-264.2z" />
<glyph unicode="&#xe90a;" glyph-name="itunes" horiz-adv-x="896" d="M447.2 799.4c-189.2 0-342.2-153.4-342.2-342.4s153-342.6 342.2-342.6 342.4 153.4 342.4 342.4c0 189.2-153.4 342.6-342.4 342.6zM606 319.4c-6.4-27.2-27-42.4-54.6-47.6-24.2-4.4-44.4-5.6-63.8 10-23.6 20-24 52.8-2.8 73.6 16.8 16 40.6 19.2 76 25.6 6 1 11.2 2.4 15.4 7.4 6.4 7.2 4.4 4 4.4 161.6 0 11.2-5.4 14.2-16.8 12.2-8-1.4-183.8-34.2-183.8-34.2-10-2.2-13.4-5.2-13.4-16.6 0-232.2 1-221.6-2.4-237-4.2-18-15.2-31.6-29.8-39.2-16.6-9.2-46.8-13.2-62.8-10.4-42.8 8-57.8 57.4-28.8 85.8 16.8 16 40.6 19.2 76 25.6 6 1 11.2 2.4 15.4 7.4 10 11.4 1.8 254 5.2 267.4 0.8 5.2 3 9.6 7 12.8 4.2 3.4 11.6 5.4 13.4 5.4 202 38 226.6 42.8 230.2 42.8 11.4 0.8 18-6 18-17.4-0.2-341.2 0.8-322.8-2-335.2zM690.4 896h-484.8c-113.8 0-205.6-91.8-205.6-205.6v-484.8c0-113.8 91.8-205.6 205.6-205.6h484.8c114 0 205.6 91.8 205.6 205.6v484.8c0 113.8-91.8 205.6-205.6 205.6zM447.2 72c-212.6 0-385 172.4-385 385s172.4 385 385 385 385-172.4 385-385-172.4-385-385-385z" />
<glyph unicode="&#xe90b;" glyph-name="kik" d="M437 840c-41.359 0-75-33.648-75-75v-240c0-41.352 33.641-75 75-75s75 33.648 75 75v240c0 41.352-33.641 75-75 75zM949 750c-41.359 0-75-33.648-75-75s33.641-75 75-75 75 33.648 75 75-33.641 75-75 75zM787.516 677.453l34.516 34.516c29.242 29.242 29.242 76.82 0 106.063s-76.82 29.242-106.063 0l-21.969-21.969v88.938c0 41.352-33.641 75-75 75s-75-33.648-75-75v-360c0-41.352 33.641-75 75-75s75 33.648 75 75v22.305l42.594-63.906c13.945-20.914 37.281-33.398 62.438-33.398 14.859 0 29.242 4.359 41.555 12.586 16.68 11.102 28.031 28.039 31.961 47.695 3.93 19.648-0.023 39.648-11.148 56.32zM243.516 677.453l34.516 34.516c29.242 29.242 29.242 76.82 0 106.063s-76.82 29.242-106.063 0l-21.969-21.969v88.938c0 41.352-33.641 75-75 75s-75-33.648-75-75v-360c0-41.352 33.641-75 75-75s75 33.648 75 75v22.305l42.594-63.906c13.945-20.914 37.281-33.398 62.438-33.398 14.859 0 29.242 4.359 41.555 12.586 16.68 11.102 28.031 28.039 31.961 47.695s-0.031 39.656-11.148 56.32z" />
<glyph unicode="&#xe90c;" glyph-name="line" horiz-adv-x="896" d="M544.2 551.6v-142.2c0-3.6-2.8-6.4-6.4-6.4h-22.8c-2.2 0-4.2 1.2-5.2 2.6l-65.2 88v-84.4c0-3.6-2.8-6.4-6.4-6.4h-22.8c-3.6 0-6.4 2.8-6.4 6.4v142.2c0 3.6 2.8 6.4 6.4 6.4h22.6c2 0 4.2-1 5.2-2.8l65.2-88v84.4c0 3.6 2.8 6.4 6.4 6.4h22.8c3.6 0.2 6.6-2.8 6.6-6.2zM380.2 558h-22.8c-3.6 0-6.4-2.8-6.4-6.4v-142.2c0-3.6 2.8-6.4 6.4-6.4h22.8c3.6 0 6.4 2.8 6.4 6.4v142.2c0 3.4-2.8 6.4-6.4 6.4zM325.2 438.8h-62.2v112.8c0 3.6-2.8 6.4-6.4 6.4h-22.8c-3.6 0-6.4-2.8-6.4-6.4v-142.2c0-1.8 0.6-3.2 1.8-4.4 1.2-1 2.6-1.8 4.4-1.8h91.4c3.6 0 6.4 2.8 6.4 6.4v22.8c0 3.4-2.8 6.4-6.2 6.4zM664.2 558h-91.4c-3.4 0-6.4-2.8-6.4-6.4v-142.2c0-3.4 2.8-6.4 6.4-6.4h91.4c3.6 0 6.4 2.8 6.4 6.4v22.8c0 3.6-2.8 6.4-6.4 6.4h-62.2v24h62.2c3.6 0 6.4 2.8 6.4 6.4v23c0 3.6-2.8 6.4-6.4 6.4h-62.2v24h62.2c3.6 0 6.4 2.8 6.4 6.4v22.8c-0.2 3.4-3 6.4-6.4 6.4zM896 732.6v-570.6c-0.2-89.6-73.6-162.2-163.4-162h-570.6c-89.6 0.2-162.2 73.8-162 163.4v570.6c0.2 89.6 73.8 162.2 163.4 162h570.6c89.6-0.2 162.2-73.6 162-163.4zM772.8 487.4c0 146-146.4 264.8-326.2 264.8s-326.2-118.8-326.2-264.8c0-130.8 116-240.4 272.8-261.2 38.2-8.2 33.8-22.2 25.2-73.6-1.4-8.2-6.6-32.2 28.2-17.6s187.8 110.6 256.4 189.4c47.2 52 69.8 104.6 69.8 163z" />
<glyph unicode="&#xe90d;" glyph-name="linkedin" horiz-adv-x="896" d="M832 896h-768.2c-35.2 0-63.8-29-63.8-64.6v-766.8c0-35.6 28.6-64.6 63.8-64.6h768.2c35.2 0 64 29 64 64.6v766.8c0 35.6-28.8 64.6-64 64.6zM270.8 128h-132.8v427.6h133v-427.6zM204.4 614c-42.6 0-77 34.6-77 77s34.4 77 77 77c42.4 0 77-34.6 77-77 0-42.6-34.4-77-77-77zM768.6 128h-132.8v208c0 49.6-1 113.4-69 113.4-69.2 0-79.8-54-79.8-109.8v-211.6h-132.8v427.6h127.4v-58.4h1.8c17.8 33.6 61.2 69 125.8 69 134.4 0 159.4-88.6 159.4-203.8v-234.4z" />
<glyph unicode="&#xe90e;" glyph-name="ok" horiz-adv-x="896" d="M368.4 605.8c0 44.2 35.8 80 79.6 80s79.6-35.8 79.6-80c0-44-35.8-79.6-79.6-79.6s-79.6 35.8-79.6 79.6zM896 800v-704c0-53-43-96-96-96h-704c-53 0-96 43-96 96v704c0 53 43 96 96 96h704c53 0 96-43 96-96zM285.8 605.8c0-89.2 72.8-161.8 162.2-161.8s162.2 72.4 162.2 161.8c0 89.6-72.8 162.2-162.2 162.2s-162.2-72.4-162.2-162.2zM634.8 424.4c-9.2 18.2-34.6 33.6-68.2 7.2 0 0-45.4-36-118.6-36s-118.6 36-118.6 36c-33.6 26.4-59 11-68.2-7.2-15.8-32.2 2.2-47.4 42.8-74 34.6-22.2 82.4-30.4 113.2-33.6l-25.8-25.8c-36.4-36-71-71-95.4-95.4-35.2-35.2 21.4-91.6 56.8-57.2l95.4 95.8c36.4-36.4 71.4-71.4 95.4-95.8 35.2-34.4 92 21.4 57.2 57.2l-95.4 95.4-26 25.8c31 3.2 78.2 11.8 112.4 33.6 40.8 26.6 58.6 42 43 74z" />
<glyph unicode="&#xe90f;" glyph-name="pinterest" horiz-adv-x="992" d="M992 448c0-274-222-496-496-496-51.2 0-100.4 7.8-146.8 22.2 20.2 33 50.4 87 61.6 130 6 23.2 30.8 118 30.8 118 16.2-30.8 63.4-57 113.6-57 149.6 0 257.4 137.6 257.4 308.6 0 163.8-133.8 286.4-305.8 286.4-214 0-327.8-143.6-327.8-300.2 0-72.8 38.8-163.4 100.6-192.2 9.4-4.4 14.4-2.4 16.6 6.6 1.6 6.8 10 40.6 13.8 56.2 1.2 5 0.6 9.4-3.4 14.2-20.2 25-36.6 70.6-36.6 113.2 0 109.4 82.8 215.2 224 215.2 121.8 0 207.2-83 207.2-201.8 0-134.2-67.8-227.2-156-227.2-48.6 0-85.2 40.2-73.4 89.6 14 59 41 122.6 41 165.2 0 38-20.4 69.8-62.8 69.8-49.8 0-89.8-51.4-89.8-120.4 0-44 14.8-73.6 14.8-73.6s-49-207.6-58-246.4c-10-42.8-6-103.2-1.8-142.4-184.4 72.2-315.2 251.8-315.2 462 0 274 222 496 496 496s496-222 496-496z" />
<glyph unicode="&#xe910;" glyph-name="qq" horiz-adv-x="896" d="M867.508 119.11c-23.052-2.786-89.72 105.482-89.72 105.482 0-62.69-32.272-144.494-102.102-203.572 33.684-10.384 109.686-38.334 91.606-68.842-14.632-24.686-251.020-15.762-319.264-8.074-68.244-7.688-304.632-16.612-319.264 8.074-18.090 30.5 57.836 58.428 91.566 68.83-69.84 59.078-102.118 140.89-102.118 203.584 0 0-66.668-108.268-89.718-105.482-10.74 1.3-24.848 59.288 18.694 199.408 20.522 66.048 43.99 120.956 80.288 211.558-6.11 233.798 90.488 429.912 320.524 429.924 227.474-0.012 326.312-192.266 320.528-429.926 36.236-90.446 59.824-145.7 80.288-211.556 43.536-140.12 29.432-198.106 18.692-199.408z" />
<glyph unicode="&#xe911;" glyph-name="reddit" d="M403 349c-27.6 0-49.8 22.2-49.8 49.2 0 27.6 22.2 49.8 49.8 49.8 27.2 0 49.2-22.2 49.2-49.8 0-27.2-22.2-49.2-49.2-49.2zM1008 448c0-274-222-496-496-496s-496 222-496 496 222 496 496 496 496-222 496-496zM743.4 530.4c-18.8 0-35.4-7.8-47.6-20-44.8 31-105.2 51-172.2 53.2l34.8 156.6 110.8-25c0-27.2 22.2-49.2 49.2-49.2 27.6 0 49.8 22.6 49.8 49.8s-22.2 49.8-49.8 49.8c-19.4 0-36-11.6-44.2-27.6l-122.4 27.2c-6 1.6-12.2-2.8-13.8-8.8l-38.2-172.8c-66.4-2.8-126.2-22.6-171-53.6-12.2 12.8-29.4 20.4-48.2 20.4-69.8 0-92.6-93.8-28.8-125.6-2.2-10-3.4-20.4-3.4-31 0-105.2 118.4-190.4 264-190.4 146.2 0 264.6 85.2 264.6 190.4 0 10.6-1.2 21.6-3.8 31.6 62.6 32 39.6 125-29.8 125zM605.6 298c-36.4-36.4-152.2-35.8-187.2 0-4.4 4.4-12.2 4.4-16.6 0-5-5-5-12.8 0-17.2 45.6-45.6 174.6-45.6 220.4 0 5 4.4 5 12.2 0 17.2-4.4 4.4-12.2 4.4-16.6 0zM621 448c-27.2 0-49.2-22.2-49.2-49.8 0-27.2 22.2-49.2 49.2-49.2 27.6 0 49.8 22.2 49.8 49.2 0 27.6-22 49.8-49.8 49.8z" />
<glyph unicode="&#xe912;" glyph-name="skype" horiz-adv-x="896" d="M849.4 360.4c5.8 28 9.4 57.8 9.4 87.6 0 227-183.8 410.6-410.6 410.6-29.8 0-59.4-3.4-87.6-9.4-38 29.4-85.2 46.8-136.6 46.8-123.6 0-224-100.4-224-224 0-51.4 17.4-98.6 46.6-136.4-5.8-28-9.4-57.8-9.4-87.6 0-227 183.8-410.6 410.6-410.6 29.8 0 59.4 3.4 87.6 9.4 38-29.2 85.2-46.6 136.4-46.6 123.6 0 224 100.4 224 224 0.2 51.2-17.2 98.4-46.4 136.2zM460.2 177.4c-131.2 0-241 58.4-241 130 0 32 18 61.2 59 61.2 62.4 0 68.2-89.8 176.2-89.8 51.4 0 84.6 22.8 84.6 52.6 0 37.4-32 43.2-84 56-125 30.8-235.6 44-235.6 174.4 0 118.4 117.2 162.2 218.2 162.2 110.2 0 221.6-43.8 221.6-110.8 0-33.8-22.8-63.6-60.6-63.6-56.6 0-58.4 67-150 67-51.4 0-84-14-84-45 0-39.6 41.6-43.6 138.2-66 82.8-18.6 181.4-53.6 181.4-155.2 0-118.2-114.2-173-224-173z" />
<glyph unicode="&#xe913;" glyph-name="snapchat" horiz-adv-x="896" d="M800 896h-704c-53 0-96-43-96-96v-704c0-53 43-96 96-96h704c53 0 96 43 96 96v704c0 53-43 96-96 96zM787 266.2c-7-16.2-36.2-28-89.6-36.4-2.8-3.8-5-19.6-8.6-31.8-2.2-7.4-7.4-11.8-16.2-11.8h-0.4c-12.4 0-25.6 5.8-51.6 5.8-35.2 0-47.4-8-74.8-27.4-29-20.6-56.8-38.2-98.4-36.4-42-3.2-77.2 22.4-97 36.4-27.6 19.4-39.6 27.4-74.8 27.4-25 0-40.8-6.2-51.6-6.2s-15 6.6-16.6 12c-3.6 12.2-5.8 28.2-8.6 32-27.6 4.2-89.6 15-91 42.8-0.4 7.2 4.6 13.6 11.8 14.8 92.6 15.2 134.2 110.2 136 114.2 0 0.2 0.2 0.4 0.4 0.6 5 10 6 18.4 3.2 25-6.8 15.8-35.8 21.4-48 26.4-31.6 12.4-36 26.8-34 36.6 3.2 17 28.8 27.6 43.8 20.6 11.8-5.6 22.4-8.4 31.4-8.4 6.6 0 11 1.6 13.2 2.8-2.8 47.8-9.4 116 7.6 154.2 45 100.6 140.2 108.6 168.2 108.6 1.2 0 12.2 0.2 13.4 0.2 69.4 0 136-35.6 168.6-108.6 17-38.2 10.4-106.2 7.6-154.2 2.2-1.2 5.8-2.6 11.4-2.8 8.6 0.4 18.4 3.2 29.4 8.4 8 3.8 19.2 3.2 27.2 0 12.6-4.6 20.6-13.6 20.8-23.8 0.2-13-11.4-24.2-34.4-33.2-2.8-1.2-6.2-2.2-9.8-3.4-13-4.2-32.8-10.4-38-23-2.8-6.6-1.6-15 3.2-25 0.2-0.2 0.2-0.4 0.4-0.6 1.8-4 43.4-99 136-114.2 8-2 14.2-11 9.8-21.6z" />
<glyph unicode="&#xe914;" glyph-name="soundcloud" horiz-adv-x="1280" d="M222.8 447.4l11.6-130-11.6-136.6c-0.6-5-4.4-8.8-8.8-8.8s-8.4 3.8-8.4 8.8l-11.2 136.6 11.2 130c0 4.4 3.8 8.4 8.4 8.4 4.4 0 8.2-4 8.8-8.4zM265.6 538.6c-5.6 0-9.4-4.4-10-10l-10-211.2 10-136.6c0.6-5.6 4.4-10 10-10 5 0 9.4 4.4 9.4 10l11.6 136.6-11.6 211.2c0 5.6-4.4 10-9.4 10zM316.6 586.8c-6.2 0-10.6-4.4-11.2-10.6l-8.8-260 8.8-135.6c0.6-6.2 5-10.6 11.2-10.6 5.6 0 10.6 4.4 10.6 10.6l10.6 135.6-10.6 260c0 6.2-5 10.6-10.6 10.6zM14.4 393.6c-2.8 0-4.4-2.2-5-5l-9.4-71.2 9.4-70c0.6-2.8 2.2-5 5-5s4.4 2.2 5 5l11.2 70-11.2 71.2c-0.6 2.8-2.2 5-5 5zM61.6 437.4c-2.8 0-5-2.2-5-5l-12.8-115 12.8-112.2c0-3.4 2.2-5.6 5-5.6s5 2.2 5.6 5l14.4 112.8-14.4 115c-0.6 2.8-2.8 5-5.6 5zM112.2 460.2c-3.4 0-6.2-2.8-6.6-6.6l-11.6-136.2 11.6-131.6c0.6-3.4 3.4-6.2 6.6-6.2 3.4 0 6.2 2.8 6.2 6.2l13.8 131.6-13.8 136.2c0 3.8-2.8 6.6-6.2 6.6zM162.8 464.6c-3.8 0-7.2-2.8-7.2-7.2l-11.6-140 11.6-135.6c0-4.4 3.4-7.2 7.2-7.2s7.2 2.8 7.8 7.2l12.8 135.6-12.8 140c-0.6 4.4-4 7.2-7.8 7.2zM645.6 686.4c-2.2 1.6-5.6 2.8-8.4 2.8-4.4 0-8.4-1.6-11.2-3.8-3.8-3.4-6.2-8.4-6.6-13.4v-1.6l-6.6-353.4 3.4-65 3.4-63.4c0.6-9.4 8.4-17.2 17.8-17.2s17.2 7.8 17.2 17.2l7.8 128.4-7.8 355c-0.8 6-4 11.6-9 14.4zM592.2 655.8c-2.8 1.6-5.6 2.8-8.8 2.8s-6.2-1.2-8.8-2.8c-4.4-2.8-7.2-7.8-7.2-13.4l-0.6-3.4-5.6-321.6s0-0.6 6.2-131.2v-0.6c0-3.4 1.2-6.6 3.4-9.4 3.4-3.8 7.8-6.2 12.8-6.2 4.4 0 8.4 2.2 11.2 5 3.4 2.8 5 6.6 5 11.2l0.6 13.4 6.2 117.2-6.6 325.6c-0.6 5.6-3.4 10.6-7.8 13.4zM369.4 610.8c-6.2 0-11.6-5.6-11.6-12.2l-8.8-281.2 8.8-134.4c0.6-6.6 5.6-11.6 11.6-11.6 6.6 0 11.6 5 12.2 11.6l10 134.4-10 281.2c-0.4 6.6-5.4 12.2-12.2 12.2zM1122.8 485.2c-21.6 0-42.2-4.4-61.2-12.2-12.8 141.6-131.6 252.8-276.6 252.8-35.6 0-70-6.6-100.6-18.8-12.2-4.4-15.6-8.8-15.6-18.4v-499.4c0-10 7.8-17.2 17.2-18.4h436.6c86.6 0 157.2 70 157.2 156.6 0.2 87.2-70.4 157.8-157 157.8zM529.4 605.8c-8.4 0-15-6.6-15.6-15.6l-6.6-273.4 6.6-131.2c0.6-8.4 7.2-15 15.6-15s15 6.6 15 15l7.8 131.2-7.8 273.4c-0.6 9-6.6 15.6-15 15.6zM422.2 621.4c-6.6 0-12.8-6.2-12.8-13.4l-7.8-290.6 7.8-133.8c0.6-7.2 6.2-12.8 12.8-12.8 7.2 0 12.8 5.6 13.4 12.8l8.8 133.8-8.8 290.6c-0.6 7.2-6.2 13.4-13.4 13.4zM475.6 614.6c-7.8 0-13.8-6.2-13.8-13.8l-7.8-283.4 7.8-132.8c0.6-7.8 6.2-13.8 13.8-13.8s13.8 6.2 13.8 13.8l8.4 132.8-8.4 283.4c0 7.8-6 13.8-13.8 13.8z" />
<glyph unicode="&#xe915;" glyph-name="spotify" horiz-adv-x="992" d="M496 944c-273.8 0-496-222.2-496-496s222.2-496 496-496 496 222.2 496 496-222.2 496-496 496zM697.4 214.2c-8.4 0-13.6 2.6-21.4 7.2-124.8 75.2-270 78.4-413.4 49-7.8-2-18-5.2-23.8-5.2-19.4 0-31.6 15.4-31.6 31.6 0 20.6 12.2 30.4 27.2 33.6 163.8 36.2 331.2 33 474-52.4 12.2-7.8 19.4-14.8 19.4-33s-14.2-30.8-30.4-30.8zM751.2 345.4c-10.4 0-17.4 4.6-24.6 8.4-125 74-311.4 103.8-477.2 58.8-9.6-2.6-14.8-5.2-23.8-5.2-21.4 0-38.8 17.4-38.8 38.8s10.4 35.6 31 41.4c55.6 15.6 112.4 27.2 195.6 27.2 129.8 0 255.2-32.2 354-91 16.2-9.6 22.6-22 22.6-39.4-0.2-21.6-17-39-38.8-39zM813.2 497.8c-10.4 0-16.8 2.6-25.8 7.8-142.4 85-397 105.4-561.8 59.4-7.2-2-16.2-5.2-25.8-5.2-26.4 0-46.6 20.6-46.6 47.2 0 27.2 16.8 42.6 34.8 47.8 70.4 20.6 149.2 30.4 235 30.4 146 0 299-30.4 410.8-95.6 15.6-9 25.8-21.4 25.8-45.2 0-27.2-22-46.6-46.4-46.6z" />
<glyph unicode="&#xe916;" glyph-name="telegram" horiz-adv-x="992" d="M496 944c-274 0-496-222-496-496s222-496 496-496 496 222 496 496-222 496-496 496zM739.6 604.2l-81.4-383.6c-6-27.2-22.2-33.8-44.8-21l-124 91.4-59.8-57.6c-6.6-6.6-12.2-12.2-25-12.2l8.8 126.2 229.8 207.6c10 8.8-2.2 13.8-15.4 5l-284-178.8-122.4 38.2c-26.6 8.4-27.2 26.6 5.6 39.4l478.2 184.4c22.2 8 41.6-5.4 34.4-39z" />
<glyph unicode="&#xe917;" glyph-name="tiktok" horiz-adv-x="896" d="M896 540.18c-0.299-0.001-0.652-0.001-1.005-0.001-91.768 0-176.664 29.423-245.768 79.349l1.233-0.848v-357.44c-0.068-179.496-145.594-324.981-325.1-324.981-179.548 0-325.1 145.552-325.1 325.1s145.552 325.1 325.1 325.1c15.745 0 31.228-1.119 46.375-3.283l-1.735 0.203v-179.78c-13.386 4.362-28.789 6.877-44.78 6.877-82.423 0-149.24-66.817-149.24-149.24s66.817-149.24 149.24-149.24c82.423 0 149.24 66.817 149.24 149.24 0 0.001 0 0.002 0 0.004v0 698.76h176c-0.005-0.592-0.008-1.292-0.008-1.993 0-14.966 1.356-29.615 3.953-43.83l-0.225 1.484c12.99-67.689 52.414-124.345 106.88-159.865l0.94-0.575c37.691-25.239 84.063-40.28 133.949-40.28 0.018 0 0.036 0 0.054 0h-0.003z" />
<glyph unicode="&#xe918;" glyph-name="tumblr" horiz-adv-x="896" d="M800 896h-704c-53 0-96-43-96-96v-704c0-53 43-96 96-96h704c53 0 96 43 96 96v704c0 53-43 96-96 96zM635.4 167.6c-17-18.2-62.4-39.6-121.8-39.6-151 0-183.8 111-183.8 175.8v180h-59.4c-6.8 0-12.4 5.6-12.4 12.4v85c0 9 5.6 17 14.2 20 77.6 27.4 101.8 95 105.4 146.4 1 13.8 8.2 20.4 20 20.4h88.6c6.8 0 12.4-5.6 12.4-12.4v-144h103.8c6.8 0 12.4-5.6 12.4-12.4v-102.2c0-6.8-5.6-12.4-12.4-12.4h-104.2v-166.6c0-42.8 29.6-67 85-44.8 6 2.4 11.2 4 16 2.8 4.4-1 7.2-4.2 9.2-9.8l27.6-80.4c2-6.4 4-13.4-0.6-18.2z" />
<glyph unicode="&#xe919;" glyph-name="twitch" d="M782.34 753.060h-77.26v-219.4h77.26zM570 754h-77.26v-219.5h77.26zM241.66 960l-193.040-182.84v-658.32h231.66v-182.84l193.060 182.84h154.5l347.54 329.16v512zM898.14 484.5l-154.44-146.24h-154.48l-135.2-128v128h-173.74v548.58h617.86z" />
<glyph unicode="&#xe91a;" glyph-name="twitter" d="M918.74 656.568c0.65-9.096 0.65-18.194 0.65-27.29 0-277.44-211.166-597.116-597.116-597.116-118.904 0-229.36 34.438-322.274 94.212 16.894-1.948 33.136-2.598 50.68-2.598 98.11 0 188.426 33.136 260.548 89.664-92.264 1.95-169.584 62.376-196.224 145.544 12.996-1.948 25.99-3.248 39.636-3.248 18.842 0 37.686 2.6 55.228 7.146-96.162 19.494-168.286 103.96-168.286 205.97v2.598c27.938-15.594 60.428-25.34 94.862-26.638-56.528 37.686-93.562 102.010-93.562 174.782 0 38.984 10.394 74.72 28.588 105.908 103.31-127.35 258.6-210.516 432.73-219.614-3.248 15.594-5.198 31.836-5.198 48.080 0 115.656 93.564 209.868 209.868 209.868 60.426 0 115.004-25.34 153.34-66.274 47.43 9.096 92.912 26.64 133.198 50.68-15.596-48.732-48.732-89.666-92.264-115.654 42.234 4.546 83.168 16.244 120.852 32.486-28.584-41.582-64.322-78.616-105.256-108.506z" />
<glyph unicode="&#xe91b;" glyph-name="vk" horiz-adv-x="1152" d="M1090 724.6c7.4 25 0 43.4-35.6 43.4h-117.8c-30 0-43.8-15.8-51.2-33.4 0 0-60-146.2-144.8-241-27.4-27.4-40-36.2-55-36.2-7.4 0-18.8 8.8-18.8 33.8v233.4c0 30-8.4 43.4-33.2 43.4h-185.2c-18.8 0-30-14-30-27 0-28.4 42.4-35 46.8-115v-173.6c0-38-6.8-45-21.8-45-40 0-137.2 146.8-194.8 314.8-11.6 32.6-23 45.8-53.2 45.8h-117.8c-33.6 0-40.4-15.8-40.4-33.4 0-31.2 40-186.2 186.2-391 97.4-139.8 234.6-215.6 359.4-215.6 75 0 84.2 16.8 84.2 45.8 0 133.6-6.8 146.2 30.8 146.2 17.4 0 47.4-8.8 117.4-76.2 80-80 93.2-115.8 138-115.8h117.8c33.6 0 50.6 16.8 40.8 50-22.4 69.8-173.8 213.4-180.6 223-17.4 22.4-12.4 32.4 0 52.4 0.2 0.2 144 202.6 158.8 271.2z" />
<glyph unicode="&#xe91c;" glyph-name="whatsapp" horiz-adv-x="896" d="M761.8 765.8c-83.8 84-195.4 130.2-314 130.2-244.8 0-444-199.2-444-444 0-78.2 20.4-154.6 59.2-222l-63-230 235.4 61.8c64.8-35.4 137.8-54 212.2-54h0.2c244.6 0 448.2 199.2 448.2 444 0 118.6-50.4 230-134.2 314zM447.8 82.6c-66.4 0-131.4 17.8-188 51.4l-13.4 8-139.6-36.6 37.2 136.2-8.8 14c-37 58.8-56.4 126.6-56.4 196.4 0 203.4 165.6 369 369.2 369 98.6 0 191.2-38.4 260.8-108.2s112.4-162.4 112.2-261c0-203.6-169.8-369.2-373.2-369.2zM650.2 359c-11 5.6-65.6 32.4-75.8 36-10.2 3.8-17.6 5.6-25-5.6s-28.6-36-35.2-43.6c-6.4-7.4-13-8.4-24-2.8-65.2 32.6-108 58.2-151 132-11.4 19.6 11.4 18.2 32.6 60.6 3.6 7.4 1.8 13.8-1 19.4s-25 60.2-34.2 82.4c-9 21.6-18.2 18.6-25 19-6.4 0.4-13.8 0.4-21.2 0.4s-19.4-2.8-29.6-13.8c-10.2-11.2-38.8-38-38.8-92.6s39.8-107.4 45.2-114.8c5.6-7.4 78.2-119.4 189.6-167.6 70.4-30.4 98-33 133.2-27.8 21.4 3.2 65.6 26.8 74.8 52.8s9.2 48.2 6.4 52.8c-2.6 5-10 7.8-21 13.2z" />
<glyph unicode="&#xe91d;" glyph-name="youtube" horiz-adv-x="1152" d="M1099.31 711.834c-12.562 47.3-49.574 84.552-96.568 97.194-85.18 22.972-426.742 22.972-426.742 22.972s-341.56 0-426.742-22.972c-46.994-12.644-84.006-49.894-96.568-97.194-22.824-85.734-22.824-264.61-22.824-264.61s0-178.876 22.824-264.61c12.562-47.3 49.574-83 96.568-95.642 85.182-22.972 426.742-22.972 426.742-22.972s341.56 0 426.742 22.972c46.994 12.642 84.006 48.342 96.568 95.642 22.824 85.734 22.824 264.61 22.824 264.61s0 178.876-22.824 264.61zM464.29 284.818v324.812l285.478-162.41-285.478-162.402z" />
<glyph unicode="&#xe91e;" glyph-name="br_add" d="M512 960c-282.77 0-512-229.23-512-512s229.23-512 512-512c282.77 0 512 229.23 512 512v0c-0.316 282.643-229.358 511.685-511.97 512h-0.030zM512 64c-212.077 0-384 171.923-384 384s171.923 384 384 384c212.077 0 384-171.923 384-384v0c-0.243-211.98-172.021-383.758-383.977-384h-0.023zM725.333 448c0-35.346-28.654-64-64-64v0h-85.333v-85.333c0-35.346-28.654-64-64-64s-64 28.654-64 64v0 85.333h-85.333c-35.346 0-64 28.654-64 64s28.654 64 64 64v0h85.333v85.333c0 35.346 28.654 64 64 64s64-28.654 64-64v0-85.333h85.333c35.346 0 64-28.654 64-64v0z" />
<glyph unicode="&#xe91f;" glyph-name="br_alarm_clock" d="M576 869.76v26.24c0 35.346-28.654 64-64 64s-64-28.654-64-64v0-26.24c-230.105-31.953-405.347-227.391-405.347-463.759 0-108.175 36.704-207.778 98.338-287.034l-0.789 1.054c-33.641-27.798-54.917-69.526-54.917-116.223 0-1.335 0.017-2.667 0.052-3.994l-0.004 0.196c0-35.346 28.654-64 64-64s64 28.654 64 64v0c-0.091 0.839-0.143 1.812-0.143 2.798 0 12.326 8.154 22.748 19.363 26.165l0.194 0.051c76.822-58.029 173.928-92.944 279.189-92.944s202.366 34.915 280.367 93.796l-1.178-0.852c11.466-3.427 19.681-13.88 19.681-26.252 0-0.972-0.051-1.933-0.15-2.879l0.010 0.118c0-35.346 28.654-64 64-64s64 28.654 64 64v0c0.031 1.131 0.048 2.462 0.048 3.798 0 46.698-21.276 88.426-54.664 116.020l-0.254 0.204c60.845 78.201 97.55 177.804 97.55 285.979 0 236.368-175.242 431.806-402.889 463.479l-2.458 0.28zM170.667 405.333c0 188.513 152.82 341.333 341.333 341.333s341.333-152.82 341.333-341.333c0-188.513-152.82-341.333-341.333-341.333v0c-188.425 0.218-341.115 152.908-341.333 341.312v0.021zM832 960c-35.346 0-64-28.654-64-64s28.654-64 64-64v0c1.348 0.111 2.918 0.175 4.503 0.175 32.071 0 58.069-25.999 58.069-58.069 0-2.151-0.117-4.274-0.345-6.364l0.023 0.258c0-35.346 28.654-64 64-64s64 28.654 64 64v0c0.090 2.15 0.141 4.673 0.141 7.208 0 102.103-82.771 184.875-184.875 184.875-1.94 0-3.873-0.030-5.799-0.089l0.282 0.007zM129.749 768c-0.205 1.832-0.322 3.955-0.322 6.106 0 32.071 25.999 58.069 58.069 58.069 1.585 0 3.155-0.063 4.708-0.188l-0.205 0.013c35.346 0 64 28.654 64 64s-28.654 64-64 64v0c-1.644 0.052-3.577 0.082-5.517 0.082-102.103 0-184.875-82.771-184.875-184.875 0-2.535 0.051-5.058 0.152-7.568l-0.012 0.36c0-35.346 28.654-64 64-64s64 28.654 64 64v0zM577.28 431.829v165.504c0 35.346-28.654 64-64 64v0 0c-35.346 0-64-28.654-64-64v0-183.168c0.005-23.562 9.559-44.892 25.002-60.33l76.502-76.502c11.497-11.116 27.179-17.966 44.462-17.966 35.346 0 64 28.654 64 64 0 17.282-6.85 32.964-17.983 44.48l0.017-0.018z" />
<glyph unicode="&#xe920;" glyph-name="br_align_center" d="M64 704h896c35.346 0 64 28.654 64 64s-28.654 64-64 64v0h-896c-35.346 0-64-28.654-64-64s28.654-64 64-64v0zM234.667 618.667c-35.346 0-64-28.654-64-64s28.654-64 64-64v0h554.667c35.346 0 64 28.654 64 64s-28.654 64-64 64v0zM789.333 192h-554.667c-35.346 0-64-28.654-64-64s28.654-64 64-64v0h554.667c35.346 0 64 28.654 64 64s-28.654 64-64 64v0zM960 405.333h-896c-35.346 0-64-28.654-64-64s28.654-64 64-64v0h896c35.346 0 64 28.654 64 64s-28.654 64-64 64v0z" />
<glyph unicode="&#xe921;" glyph-name="br_align_justify" d="M64 704h896c35.346 0 64 28.654 64 64s-28.654 64-64 64v0h-896c-35.346 0-64-28.654-64-64s28.654-64 64-64v0zM960 618.667h-896c-35.346 0-64-28.654-64-64s28.654-64 64-64v0h896c35.346 0 64 28.654 64 64s-28.654 64-64 64v0zM960 192h-896c-35.346 0-64-28.654-64-64s28.654-64 64-64v0h896c35.346 0 64 28.654 64 64s-28.654 64-64 64v0zM960 405.333h-896c-35.346 0-64-28.654-64-64s28.654-64 64-64v0h896c35.346 0 64 28.654 64 64s-28.654 64-64 64v0z" />
<glyph unicode="&#xe922;" glyph-name="br_align_left" d="M64 704h896c35.346 0 64 28.654 64 64s-28.654 64-64 64v0h-896c-35.346 0-64-28.654-64-64s28.654-64 64-64v0zM64 490.667h554.667c35.346 0 64 28.654 64 64s-28.654 64-64 64v0h-554.667c-35.346 0-64-28.654-64-64s28.654-64 64-64v0zM618.667 192h-554.667c-35.346 0-64-28.654-64-64s28.654-64 64-64v0h554.667c35.346 0 64 28.654 64 64s-28.654 64-64 64v0zM960 405.333h-896c-35.346 0-64-28.654-64-64s28.654-64 64-64v0h896c35.346 0 64 28.654 64 64s-28.654 64-64 64v0z" />
<glyph unicode="&#xe923;" glyph-name="br_align_right" d="M64 704h896c35.346 0 64 28.654 64 64s-28.654 64-64 64v0h-896c-35.346 0-64-28.654-64-64s28.654-64 64-64v0zM960 618.667h-554.667c-35.346 0-64-28.654-64-64s28.654-64 64-64v0h554.667c35.346 0 64 28.654 64 64s-28.654 64-64 64v0zM960 192h-554.667c-35.346 0-64-28.654-64-64s28.654-64 64-64v0h554.667c35.346 0 64 28.654 64 64s-28.654 64-64 64v0zM960 405.333h-896c-35.346 0-64-28.654-64-64s28.654-64 64-64v0h896c35.346 0 64 28.654 64 64s-28.654 64-64 64v0z" />
<glyph unicode="&#xe924;" glyph-name="br_ambulance" d="M981.717 450.091l-77.611 174.549c-44.334 97.8-141.075 164.617-253.43 164.693h-19.551l-23.424 112.725c-8.592 33.55-38.555 57.953-74.219 57.953s-65.627-24.403-74.103-57.423l-0.115-0.53-23.637-112.725h-200.96c-129.544-0.146-234.521-105.122-234.667-234.653v-341.347c0.311-74.697 55.415-136.429 127.183-147.1l0.817-0.1c0-0.725 0-1.408 0-2.133 0-70.692 57.308-128 128-128s128 57.308 128 128v0h213.333c0-70.692 57.308-128 128-128s128 57.308 128 128v0h21.333c82.475 0 149.333 66.859 149.333 149.333v0 37.461c0 0.214 0.001 0.468 0.001 0.722 0 71.91-15.572 140.182-43.528 201.63l1.245-3.055zM896 213.333c0-11.782-9.551-21.333-21.333-21.333v0h-725.333c-11.782 0-21.333 9.551-21.333 21.333v0 341.333c0 58.91 47.756 106.667 106.667 106.667v0h416c11.414-0.133 22.432-1.541 33.007-4.087l-1.007 0.205v-209.451c0-47.128 38.205-85.333 85.333-85.333v0h110.336c11.201-33.266 17.664-71.575 17.664-111.394 0-0.168 0-0.336 0-0.504v0.026zM554.667 426.667c0-35.346-28.654-64-64-64v0h-21.333v-21.333c0-35.346-28.654-64-64-64s-64 28.654-64 64v0 21.333h-21.333c-35.346 0-64 28.654-64 64s28.654 64 64 64v0h21.333v21.333c0 35.346 28.654 64 64 64s64-28.654 64-64v0-21.333h21.333c35.346 0 64-28.654 64-64v0z" />
<glyph unicode="&#xe925;" glyph-name="br_angle_double_left" d="M512-64c-0.033 0-0.071 0-0.11 0-17.627 0-33.582 7.159-45.115 18.729l-327.511 327.341c-42.464 42.466-68.729 101.131-68.729 165.931s26.264 123.465 68.729 165.931l327.339 327.339c11.582 11.576 27.579 18.736 45.248 18.736 35.349 0 64.005-28.656 64.005-64.005 0-17.68-7.168-33.686-18.757-45.269l-327.339-327.296c-19.309-19.304-31.252-45.975-31.252-75.435s11.943-56.131 31.252-75.434l327.339-327.296c11.59-11.583 18.76-27.589 18.76-45.269 0-35.296-28.573-63.919-63.851-64h-0.008zM919.125-64c-0.009 0-0.019 0-0.029 0-17.666 0-33.66 7.158-45.241 18.731v0l-387.456 387.669c-26.976 27.048-43.656 64.376-43.656 105.6s16.68 78.552 43.659 105.603l387.453 387.666c11.437 10.821 26.915 17.474 43.946 17.474 35.346 0 64-28.654 64-64 0-17.063-6.678-32.567-17.562-44.041l0.027 0.028-387.669-387.627c-3.872-3.862-6.267-9.203-6.267-15.104s2.396-11.242 6.267-15.104v0l387.669-387.627c11.59-11.583 18.76-27.589 18.76-45.269 0-35.311-28.597-63.944-63.896-64h-0.005z" />
<glyph unicode="&#xe926;" glyph-name="br_angle_double_right" d="M504.832-64c-0.009 0-0.019 0-0.029 0-35.346 0-64 28.654-64 64 0 17.68 7.169 33.686 18.759 45.269l327.339 327.296c19.309 19.304 31.252 45.975 31.252 75.435s-11.943 56.131-31.252 75.434l-327.339 327.296c-11.585 11.585-18.751 27.591-18.751 45.269 0 35.358 28.663 64.021 64.021 64.021 17.679 0 33.684-7.166 45.269-18.751l327.296-327.339c42.464-42.466 68.729-101.131 68.729-165.931s-26.264-123.465-68.729-165.931l-327.296-327.339c-11.58-11.573-27.574-18.731-45.24-18.731-0.010 0-0.020 0-0.031 0h0.002zM97.579-64c-35.34 0.008-63.986 28.659-63.986 64 0 17.68 7.169 33.686 18.759 45.269l387.627 387.627c3.872 3.862 6.267 9.203 6.267 15.104s-2.396 11.242-6.267 15.104v0l-387.627 387.627c-11.589 11.584-18.757 27.589-18.757 45.269 0 35.349 28.656 64.005 64.005 64.005 17.669 0 33.666-7.16 45.248-18.736l387.669-387.669c26.943-27.055 43.6-64.372 43.6-105.579s-16.657-78.524-43.605-105.584l-387.664-387.707c-11.58-11.573-27.574-18.731-45.24-18.731-0.010 0-0.020 0-0.031 0h0.002z" />
<glyph unicode="&#xe927;" glyph-name="br_angle_double_small_left" d="M447.232 128c-17.661 0.004-33.65 7.161-45.227 18.731l-195.669 195.669c-26.976 27.048-43.656 64.376-43.656 105.6s16.68 78.552 43.659 105.603l195.666 195.666c11.582 11.576 27.579 18.736 45.248 18.736 35.349 0 64.005-28.656 64.005-64.005 0-17.68-7.168-33.686-18.757-45.269l-195.67-195.627c-3.872-3.862-6.267-9.203-6.267-15.104s2.396-11.242 6.267-15.104v0l195.669-195.627c11.59-11.583 18.76-27.589 18.76-45.269 0-35.346-28.654-64-64-64-0.010 0-0.020 0-0.031 0h0.002zM745.899 128c-17.661 0.004-33.65 7.161-45.227 18.731l-256 256c-11.59 11.583-18.76 27.589-18.76 45.269s7.169 33.686 18.759 45.269l256 256c11.582 11.576 27.579 18.736 45.248 18.736 35.349 0 64.005-28.656 64.005-64.005 0-17.68-7.168-33.686-18.757-45.269l-210.902-210.731 210.731-210.731c11.59-11.583 18.76-27.589 18.76-45.269 0-35.296-28.573-63.919-63.851-64h-0.008z" />
<glyph unicode="&#xe928;" glyph-name="br_angle_double_small_right" d="M558.933 128c-0.009 0-0.019 0-0.029 0-35.346 0-64 28.654-64 64 0 17.68 7.169 33.686 18.759 45.269l195.67 195.627c3.872 3.862 6.267 9.203 6.267 15.104s-2.396 11.242-6.267 15.104v0l-195.499 195.627c-11.589 11.584-18.757 27.589-18.757 45.269 0 35.349 28.656 64.005 64.005 64.005 17.669 0 33.666-7.16 45.248-18.736l195.669-195.669c26.976-27.048 43.656-64.376 43.656-105.6s-16.68-78.552-43.659-105.603l-195.666-195.666c-11.58-11.573-27.575-18.731-45.241-18.731-0.055 0-0.11 0-0.165 0h0.009zM260.267 128c-0.009 0-0.019 0-0.029 0-35.346 0-64 28.654-64 64 0 17.68 7.169 33.686 18.759 45.269l210.902 210.731-210.731 210.731c-11.589 11.584-18.757 27.589-18.757 45.269 0 35.349 28.656 64.005 64.005 64.005 17.669 0 33.666-7.16 45.248-18.736l256-256c11.59-11.583 18.76-27.589 18.76-45.269s-7.169-33.686-18.759-45.269l-256-256c-11.58-11.573-27.575-18.731-45.241-18.731-0.055 0-0.11 0-0.165 0h0.009z" />
<glyph unicode="&#xe929;" glyph-name="br_angle_down" d="M64.427 700.629c0.025 0 0.055 0 0.085 0 17.643 0 33.609-7.177 45.138-18.771l327.384-327.342c19.304-19.309 45.975-31.252 75.435-31.252s56.131 11.943 75.434 31.252l326.87 326.912c11.654 12.054 27.97 19.538 46.034 19.538 35.346 0 64-28.654 64-64 0-18.064-7.484-34.38-19.52-46.017l-0.018-0.017-326.869-326.912c-42.489-42.413-101.147-68.64-165.931-68.64s-123.441 26.228-165.934 68.644l-327.378 327.336c-11.59 11.583-18.76 27.589-18.76 45.269 0 35.346 28.654 64 64 64 0.010 0 0.020 0 0.031 0h-0.002z" />
<glyph unicode="&#xe92a;" glyph-name="br_angle_left" d="M764.629 895.787c-0.016-17.667-7.188-33.655-18.773-45.226l-327.34-327.34c-19.309-19.304-31.252-45.975-31.252-75.435s11.943-56.131 31.252-75.434l326.912-326.912c11.116-11.497 17.966-27.179 17.966-44.462 0-35.346-28.654-64-64-64-17.282 0-32.964 6.85-44.48 17.983l0.018-0.017-326.912 326.656c-42.415 42.496-68.644 101.161-68.644 165.952s26.229 123.456 68.647 165.955l327.336 327.549c11.583 11.59 27.589 18.76 45.269 18.76 35.346 0 64-28.654 64-64 0-0.010 0-0.020 0-0.031v0.002z" />
<glyph unicode="&#xe92b;" glyph-name="br_angle_right" d="M259.371 0c0.016 17.667 7.188 33.655 18.773 45.226l327.34 327.34c19.309 19.304 31.252 45.975 31.252 75.435s-11.943 56.131-31.252 75.434l-326.912 327.126c-11.116 11.497-17.966 27.179-17.966 44.462 0 35.346 28.654 64 64 64 17.282 0 32.964-6.85 44.48-17.983l-0.018 0.017 326.912-326.869c42.415-42.496 68.644-101.161 68.644-165.952s-26.229-123.456-68.647-165.955l-327.336-327.336c-11.583-11.591-27.589-18.76-45.27-18.76-35.282 0-63.895 28.549-64 63.806v0.010z" />
<glyph unicode="&#xe92c;" glyph-name="br_angle_small_down" d="M813.269 624.896c-11.583 11.59-27.589 18.76-45.269 18.76s-33.686-7.169-45.269-18.759l-195.67-195.627c-3.86-3.859-9.193-6.246-15.083-6.246s-11.222 2.387-15.083 6.246l-195.627 195.627c-11.584 11.589-27.589 18.757-45.269 18.757-35.349 0-64.005-28.656-64.005-64.005 0-17.669 7.16-33.666 18.736-45.248l195.669-195.669c27.025-27.027 64.36-43.744 105.6-43.744s78.575 16.717 105.6 43.744l195.669 195.669c11.578 11.581 18.738 27.578 18.738 45.248s-7.161 33.667-18.739 45.248v0z" />
<glyph unicode="&#xe92d;" glyph-name="br_angle_small_left" d="M467.499 432.896c-3.872 3.862-6.267 9.203-6.267 15.104s2.396 11.242 6.267 15.104v0l195.669 195.627c11.589 11.584 18.757 27.589 18.757 45.269 0 35.349-28.656 64.005-64.005 64.005-17.669 0-33.666-7.16-45.248-18.736l-195.669-195.669c-26.976-27.048-43.656-64.376-43.656-105.6s16.68-78.552 43.659-105.603l195.666-195.666c11.582-11.576 27.579-18.736 45.248-18.736 35.349 0 64.005 28.656 64.005 64.005 0 17.68-7.168 33.686-18.757 45.269v0z" />
<glyph unicode="&#xe92e;" glyph-name="br_angle_small_right" d="M672 553.6l-195.669 195.669c-11.582 11.576-27.579 18.736-45.248 18.736-35.349 0-64.005-28.656-64.005-64.005 0-17.68 7.168-33.686 18.757-45.269l195.67-195.627c3.872-3.862 6.267-9.203 6.267-15.104s-2.396-11.242-6.267-15.104v0l-195.669-195.627c-11.589-11.584-18.757-27.589-18.757-45.269 0-35.349 28.656-64.005 64.005-64.005 17.669 0 33.666 7.16 45.248 18.736l195.669 195.669c26.976 27.048 43.656 64.376 43.656 105.6s-16.68 78.552-43.659 105.603l0.003-0.003z" />
<glyph unicode="&#xe92f;" glyph-name="br_angle_small_up" d="M813.269 386.603l-195.669 195.627c-27.394 26.204-64.613 42.334-105.6 42.334s-78.206-16.13-105.657-42.388l0.057 0.054-195.669-195.627c-11.585-11.585-18.751-27.591-18.751-45.269 0-35.358 28.663-64.021 64.021-64.021 17.679 0 33.684 7.166 45.269 18.751l195.669 195.669c3.86 3.859 9.193 6.246 15.083 6.246s11.222-2.387 15.083-6.246l195.627-195.669c11.585-11.585 27.591-18.751 45.269-18.751 35.358 0 64.021 28.663 64.021 64.021 0 17.679-7.166 33.684-18.751 45.269v0z" />
<glyph unicode="&#xe930;" glyph-name="br_angle_up" d="M960 192c-17.682 0.004-33.688 7.178-45.269 18.773l-327.297 327.297c-19.304 19.309-45.975 31.252-75.435 31.252s-56.131-11.943-75.434-31.252l-326.912-326.912c-11.497-11.116-27.179-17.966-44.462-17.966-35.346 0-64 28.654-64 64 0 17.282 6.85 32.964 17.983 44.48l-0.017-0.018 326.912 326.912c42.489 42.413 101.147 68.64 165.931 68.64s123.441-26.228 165.934-68.644l327.336-327.336c11.565-11.579 18.717-27.568 18.717-45.227 0-35.341-28.646-63.992-63.986-64h-0.001z" />
<glyph unicode="&#xe931;" glyph-name="br_apps" d="M234.667 490.667c-129.603 0-234.667 105.064-234.667 234.667s105.064 234.667 234.667 234.667c129.603 0 234.667-105.064 234.667-234.667v0c-0.146-129.544-105.122-234.521-234.653-234.667h-0.014zM234.667 832c-58.91 0-106.667-47.756-106.667-106.667s47.756-106.667 106.667-106.667c58.91 0 106.667 47.756 106.667 106.667v0c0 58.91-47.756 106.667-106.667 106.667v0zM789.333 490.667c-129.603 0-234.667 105.064-234.667 234.667s105.064 234.667 234.667 234.667c129.603 0 234.667-105.064 234.667-234.667v0c-0.146-129.544-105.122-234.521-234.653-234.667h-0.014zM789.333 832c-58.91 0-106.667-47.756-106.667-106.667s47.756-106.667 106.667-106.667c58.91 0 106.667 47.756 106.667 106.667v0c0 58.91-47.756 106.667-106.667 106.667v0zM234.667-64c-129.603 0-234.667 105.064-234.667 234.667s105.064 234.667 234.667 234.667c129.603 0 234.667-105.064 234.667-234.667v0c-0.146-129.544-105.122-234.521-234.653-234.667h-0.014zM234.667 277.333c-58.91 0-106.667-47.756-106.667-106.667s47.756-106.667 106.667-106.667c58.91 0 106.667 47.756 106.667 106.667v0c0 58.91-47.756 106.667-106.667 106.667v0zM789.333-64c-129.603 0-234.667 105.064-234.667 234.667s105.064 234.667 234.667 234.667c129.603 0 234.667-105.064 234.667-234.667v0c-0.146-129.544-105.122-234.521-234.653-234.667h-0.014zM789.333 277.333c-58.91 0-106.667-47.756-106.667-106.667s47.756-106.667 106.667-106.667c58.91 0 106.667 47.756 106.667 106.667v0c0 58.91-47.756 106.667-106.667 106.667v0z" />
<glyph unicode="&#xe932;" glyph-name="br_apps_add" d="M618.667 661.333h106.667v-106.667c0-35.346 28.654-64 64-64s64 28.654 64 64v0 106.667h106.667c35.346 0 64 28.654 64 64s-28.654 64-64 64v0h-106.667v106.667c0 35.346-28.654 64-64 64s-64-28.654-64-64v0-106.667h-106.667c-35.346 0-64-28.654-64-64s28.654-64 64-64v0zM234.667 960c-129.603 0-234.667-105.064-234.667-234.667s105.064-234.667 234.667-234.667c129.603 0 234.667 105.064 234.667 234.667v0c-0.146 129.544-105.122 234.521-234.653 234.667h-0.014zM234.667 618.667c-58.91 0-106.667 47.756-106.667 106.667s47.756 106.667 106.667 106.667c58.91 0 106.667-47.756 106.667-106.667v0c0-58.91-47.756-106.667-106.667-106.667v0zM234.667 405.333c-129.603 0-234.667-105.064-234.667-234.667s105.064-234.667 234.667-234.667c129.603 0 234.667 105.064 234.667 234.667v0c-0.146 129.544-105.122 234.521-234.653 234.667h-0.014zM234.667 64c-58.91 0-106.667 47.756-106.667 106.667s47.756 106.667 106.667 106.667c58.91 0 106.667-47.756 106.667-106.667v0c0-58.91-47.756-106.667-106.667-106.667v0zM789.333 405.333c-129.603 0-234.667-105.064-234.667-234.667s105.064-234.667 234.667-234.667c129.603 0 234.667 105.064 234.667 234.667v0c-0.146 129.544-105.122 234.521-234.653 234.667h-0.014zM789.333 64c-58.91 0-106.667 47.756-106.667 106.667s47.756 106.667 106.667 106.667c58.91 0 106.667-47.756 106.667-106.667v0c0-58.91-47.756-106.667-106.667-106.667v0z" />
<glyph unicode="&#xe933;" glyph-name="br_apps_delete" d="M618.667 661.333h341.333c35.346 0 64 28.654 64 64s-28.654 64-64 64v0h-341.333c-35.346 0-64-28.654-64-64s28.654-64 64-64v0zM234.667 960c-129.603 0-234.667-105.064-234.667-234.667s105.064-234.667 234.667-234.667c129.603 0 234.667 105.064 234.667 234.667v0c-0.146 129.544-105.122 234.521-234.653 234.667h-0.014zM234.667 618.667c-58.91 0-106.667 47.756-106.667 106.667s47.756 106.667 106.667 106.667c58.91 0 106.667-47.756 106.667-106.667v0c0-58.91-47.756-106.667-106.667-106.667v0zM234.667 405.333c-129.603 0-234.667-105.064-234.667-234.667s105.064-234.667 234.667-234.667c129.603 0 234.667 105.064 234.667 234.667v0c-0.146 129.544-105.122 234.521-234.653 234.667h-0.014zM234.667 64c-58.91 0-106.667 47.756-106.667 106.667s47.756 106.667 106.667 106.667c58.91 0 106.667-47.756 106.667-106.667v0c0-58.91-47.756-106.667-106.667-106.667v0zM789.333 405.333c-129.603 0-234.667-105.064-234.667-234.667s105.064-234.667 234.667-234.667c129.603 0 234.667 105.064 234.667 234.667v0c-0.146 129.544-105.122 234.521-234.653 234.667h-0.014zM789.333 64c-58.91 0-106.667 47.756-106.667 106.667s47.756 106.667 106.667 106.667c58.91 0 106.667-47.756 106.667-106.667v0c0-58.91-47.756-106.667-106.667-106.667v0z" />
<glyph unicode="&#xe934;" glyph-name="br_apps_sort" d="M234.667 960c-129.603 0-234.667-105.064-234.667-234.667s105.064-234.667 234.667-234.667c129.603 0 234.667 105.064 234.667 234.667v0c-0.146 129.544-105.122 234.521-234.653 234.667h-0.014zM234.667 618.667c-58.91 0-106.667 47.756-106.667 106.667s47.756 106.667 106.667 106.667c58.91 0 106.667-47.756 106.667-106.667v0c0-58.91-47.756-106.667-106.667-106.667v0zM234.667 405.333c-129.603 0-234.667-105.064-234.667-234.667s105.064-234.667 234.667-234.667c129.603 0 234.667 105.064 234.667 234.667v0c-0.146 129.544-105.122 234.521-234.653 234.667h-0.014zM234.667 64c-58.91 0-106.667 47.756-106.667 106.667s47.756 106.667 106.667 106.667c58.91 0 106.667-47.756 106.667-106.667v0c0-58.91-47.756-106.667-106.667-106.667v0zM963.669 174.336h-89.003v547.328h89.003c23.56 0.005 42.658 19.106 42.658 42.667 0 11.78-4.774 22.445-12.492 30.165l-153.003 153.003c-7.721 7.718-18.386 12.492-30.165 12.492s-22.445-4.774-30.165-12.492l-153.003-153.003c-7.718-7.721-12.492-18.386-12.492-30.165 0-23.561 19.097-42.661 42.657-42.667h89.003v-547.328h-89.003c-23.56-0.005-42.658-19.106-42.658-42.667 0-11.78 4.774-22.445 12.492-30.165l153.003-153.003c7.721-7.718 18.386-12.492 30.165-12.492s22.445 4.774 30.165 12.492l153.003 153.003c7.718 7.721 12.492 18.386 12.492 30.165 0 23.561-19.097 42.661-42.657 42.667h-0.001z" />
<glyph unicode="&#xe935;" glyph-name="br_archive" d="M704 960h-384c-129.544-0.146-234.521-105.122-234.667-234.653v-554.681c0.146-129.544 105.122-234.521 234.653-234.667h384.014c129.544 0.146 234.521 105.122 234.667 234.653v554.681c-0.146 129.544-105.122 234.521-234.653 234.667h-0.014zM320 832h384c58.91 0 106.667-47.756 106.667-106.667v0-234.667h-597.333v234.667c0 58.91 47.756 106.667 106.667 106.667v0zM704 64h-384c-58.91 0-106.667 47.756-106.667 106.667v0 192h597.333v-192c0-58.91-47.756-106.667-106.667-106.667v0zM490.667 704h42.667c35.346 0 64-28.654 64-64s-28.654-64-64-64h-42.667c-35.346 0-64 28.654-64 64s28.654 64 64 64zM490.667 277.333h42.667c35.346 0 64-28.654 64-64s-28.654-64-64-64h-42.667c-35.346 0-64 28.654-64 64s28.654 64 64 64z" />
<glyph unicode="&#xe936;" glyph-name="br_arrow_down" d="M786.219 237.44c-11.581 11.578-27.578 18.738-45.248 18.738s-33.667-7.161-45.248-18.739l-118.656-118.57-1.067 777.131c0 35.346-28.654 64-64 64v0 0c-35.346 0-64-28.654-64-64v0l0.981-776.533-117.888 117.973c-11.497 11.116-27.179 17.966-44.462 17.966-35.346 0-64-28.654-64-64 0-17.282 6.85-32.964 17.983-44.48l-0.017 0.018 167.211-167.211c27.023-27.015 64.349-43.723 105.579-43.723s78.556 16.708 105.579 43.723l167.253 167.21c11.578 11.581 18.738 27.578 18.738 45.248s-7.161 33.667-18.739 45.248v0z" />
<glyph unicode="&#xe937;" glyph-name="br_arrow_left" d="M210.901 720.811l-167.211-167.211c-26.185-27.402-42.301-64.619-42.301-105.6s16.116-78.198 42.356-105.658l-0.055 0.058 167.211-167.211c11.654-12.054 27.97-19.538 46.034-19.538 35.346 0 64 28.654 64 64 0 18.064-7.484 34.38-19.52 46.017l-0.018 0.017-118.571 118.656 778.667 0.981c35.346 0 64 28.654 64 64v0 0c0 35.346-28.654 64-64 64v0l-778.027-0.981 117.931 117.973c11.116 11.497 17.966 27.179 17.966 44.462 0 35.346-28.654 64-64 64-17.282 0-32.964-6.85-44.48-17.983l0.018 0.017z" />
<glyph unicode="&#xe938;" glyph-name="br_arrow_right" d="M815.872 175.189l167.211 167.211c26.185 27.402 42.301 64.619 42.301 105.6s-16.116 78.198-42.356 105.658l0.055-0.058-167.211 167.211c-11.584 11.589-27.589 18.757-45.269 18.757-35.349 0-64.005-28.656-64.005-64.005 0-17.669 7.16-33.666 18.736-45.248l118.613-118.656-778.667-0.981c-35.346 0-64-28.654-64-64v0 0c0-35.346 28.654-64 64-64v0l777.856 0.981-117.803-117.973c-11.116-11.497-17.966-27.179-17.966-44.462 0-35.346 28.654-64 64-64 17.282 0 32.964 6.85 44.48 17.983l-0.018-0.017z" />
<glyph unicode="&#xe939;" glyph-name="br_arrow_small_down" d="M617.6 193.195l153.003 153.003c11.576 11.582 18.736 27.579 18.736 45.248 0 35.349-28.656 64.005-64.005 64.005-17.68 0-33.686-7.168-45.269-18.757v0l-104.064-103.893v349.867c0 35.346-28.654 64-64 64s-64-28.654-64-64v0-349.867l-104.064 103.893c-11.584 11.589-27.589 18.757-45.269 18.757-35.349 0-64.005-28.656-64.005-64.005 0-17.669 7.16-33.666 18.736-45.248l153.002-153.002c27.048-26.976 64.376-43.656 105.6-43.656s78.552 16.68 105.603 43.659l-0.003-0.003z" />
<glyph unicode="&#xe93a;" glyph-name="br_arrow_small_left" d="M257.195 342.4l153.003-153.003c11.582-11.576 27.579-18.736 45.248-18.736 35.349 0 64.005 28.656 64.005 64.005 0 17.68-7.168 33.686-18.757 45.269v0l-103.893 104.064h349.867c35.346 0 64 28.654 64 64s-28.654 64-64 64v0h-349.867l104.064 104.064c11.575 11.59 18.732 27.594 18.732 45.269 0 35.383-28.683 64.066-64.066 64.066-17.707 0-33.737-7.184-45.333-18.796l-153.004-153.004c-26.976-27.048-43.656-64.376-43.656-105.6s16.68-78.552 43.659-105.603l-0.003 0.003z" />
<glyph unicode="&#xe93b;" glyph-name="br_arrow_small_right" d="M766.805 553.6l-153.003 153.003c-11.582 11.576-27.579 18.736-45.248 18.736-35.349 0-64.005-28.656-64.005-64.005 0-17.68 7.168-33.686 18.757-45.269v0l103.893-104.064h-349.867c-35.346 0-64-28.654-64-64s28.654-64 64-64v0h349.867l-104.064-104.064c-11.589-11.584-18.757-27.589-18.757-45.269 0-35.349 28.656-64.005 64.005-64.005 17.669 0 33.666 7.16 45.248 18.736l153.002 153.002c27.027 27.057 43.741 64.419 43.741 105.686 0 41.181-16.646 78.475-43.576 105.52l0.005-0.005z" />
<glyph unicode="&#xe93c;" glyph-name="br_arrow_small_up" d="M406.4 702.805l-153.003-153.003c-11.576-11.582-18.736-27.579-18.736-45.248 0-35.349 28.656-64.005 64.005-64.005 17.68 0 33.686 7.168 45.269 18.757v0l104.064 103.893v-349.867c0-35.346 28.654-64 64-64s64 28.654 64 64v0 349.867l104.064-104.064c11.584-11.589 27.589-18.757 45.269-18.757 35.349 0 64.005 28.656 64.005 64.005 0 17.669-7.16 33.666-18.736 45.248l-153.002 153.173c-27.048 26.976-64.376 43.656-105.6 43.656s-78.552-16.68-105.603-43.659l0.003 0.003z" />
<glyph unicode="&#xe93d;" glyph-name="br_arrow_up" d="M786.219 750.464l-167.211 167.211c-27.394 26.204-64.613 42.334-105.6 42.334s-78.206-16.13-105.657-42.388l0.057 0.054-167.211-167.211c-11.116-11.497-17.966-27.179-17.966-44.462 0-35.346 28.654-64 64-64 17.282 0 32.964 6.85 44.48 17.983l-0.018-0.017 118.613 118.613 0.981-778.667c0-35.346 28.654-64 64-64v0 0c35.346 0 64 28.654 64 64v0l-0.981 778.069 118.016-118.016c11.654-12.054 27.97-19.538 46.034-19.538 35.346 0 64 28.654 64 64 0 18.064-7.484 34.38-19.52 46.017l-0.018 0.017z" />
<glyph unicode="&#xe93e;" glyph-name="br_asterisk" d="M975.957 325.248c-11.529 43.641-39.506 79.341-76.734 100.785l-0.791 0.42-37.675 21.333 37.717 21.547c38.018 21.854 65.987 57.56 77.227 100.068l0.256 1.138c3.456 12.716 5.441 27.316 5.441 42.379 0 32.346-9.154 62.554-25.013 88.174l0.414-0.719c-30.736 50.602-84.050 84.837-145.603 88.72l-0.53 0.027c-1.654 0.059-3.596 0.092-5.547 0.092-30.322 0-58.75-8.11-83.232-22.28l0.8 0.427-40.021-22.869v44.843c0 94.257-76.41 170.667-170.667 170.667s-170.667-76.41-170.667-170.667v0-44.843l-40.064 22.869c-23.757 13.853-52.296 22.031-82.744 22.031-1.541 0-3.076-0.021-4.607-0.063l0.226 0.005c-62.463-3.855-116.134-38.232-146.654-88.275l-0.461-0.813c-15.323-24.808-24.403-54.881-24.403-87.074 0-15.079 1.992-29.692 5.727-43.591l-0.268 1.172c11.467-43.73 39.459-79.516 76.735-100.999l0.79-0.42 37.675-21.333-37.717-21.547c-38.019-21.865-65.997-57.565-77.268-100.066l-0.257-1.14c-3.441-12.689-5.418-27.259-5.418-42.29 0-32.33 9.145-62.524 24.989-88.137l-0.415 0.72c32.535-53.426 90.466-88.56 156.602-88.56 1.090 0 2.177 0.010 3.262 0.029l-0.163-0.002c27.554 1.345 53.008 9.205 75.209 22.058l-0.798-0.426 40.021 22.869v-44.843c0-94.257 76.41-170.667 170.667-170.667s170.667 76.41 170.667 170.667v0 44.843l40.064-22.869c23.766-13.867 52.318-22.053 82.783-22.053 1.812 0 3.618 0.029 5.416 0.086l-0.262-0.007c62.131 4.058 115.468 38.295 145.887 88.065l0.46 0.809c15.338 24.836 24.426 54.943 24.426 87.172 0 15.12-2 29.773-5.751 43.709l0.269-1.174zM844.117 256.597c-7.794-13.036-21.835-21.629-37.882-21.629-7.306 0-14.197 1.781-20.261 4.933l0.244-0.115-135.808 77.525c-9.118 5.299-20.066 8.427-31.744 8.427-35.346 0-64-28.654-64-64 0-0.008 0-0.015 0-0.023v0.001-155.051c0-23.564-19.103-42.667-42.667-42.667s-42.667 19.103-42.667 42.667v0 155.051c-0.060 35.301-28.691 63.894-64 63.894-11.678 0-22.626-3.128-32.051-8.592l0.307 0.164-135.765-77.397c-5.825-3.035-12.721-4.815-20.032-4.815-16.165 0-30.297 8.702-37.968 21.677l-0.112 0.205c-4.985 6.8-7.976 15.333-7.976 24.565 0 13.892 6.775 26.202 17.201 33.806l0.119 0.083 135.211 77.227c19.43 11.232 32.295 31.911 32.295 55.595s-12.864 44.362-31.987 55.43l-0.308 0.164-135.168 76.928c-9.812 8.454-15.987 20.895-15.987 34.779 0 8.87 2.52 17.152 6.884 24.167l-0.113-0.195c7.794 13.036 21.835 21.629 37.882 21.629 7.306 0 14.197-1.781 20.261-4.933l-0.244 0.115 135.808-77.525c9.118-5.299 20.066-8.427 31.744-8.427 35.346 0 64 28.654 64 64 0 0.008 0 0.015 0 0.023v-0.001 155.051c0 23.564 19.103 42.667 42.667 42.667s42.667-19.103 42.667-42.667v0-155.051c0.060-35.301 28.691-63.894 64-63.894 11.678 0 22.626 3.128 32.051 8.592l-0.307-0.164 135.765 77.397c5.83 3.037 12.731 4.819 20.049 4.819 16.173 0 30.314-8.703 37.994-21.681l0.112-0.205c4.229-6.753 6.737-14.958 6.737-23.749 0-13.862-6.236-26.268-16.057-34.564l-0.067-0.055-135.211-77.312c-19.43-11.232-32.295-31.911-32.295-55.595s12.864-44.362 31.987-55.43l0.308-0.164 135.040-77.056c10.106-8.177 16.514-20.578 16.514-34.477 0-8.981-2.676-17.336-7.273-24.314l0.103 0.166z" />
<glyph unicode="&#xe93f;" glyph-name="br_backpack" d="M853.333 356.651v91.349c-0.198 125.474-68.067 235.053-169.055 294.21l-1.611 0.872v46.251c0 94.257-76.41 170.667-170.667 170.667s-170.667-76.41-170.667-170.667v0-46.251c-102.599-60.029-170.469-169.608-170.667-295.054v-91.378c-74.077-19.454-127.857-85.752-128-164.634v-85.349c0-94.257 76.41-170.667 170.667-170.667v0h597.333c94.257 0 170.667 76.41 170.667 170.667v0 85.333c-0.143 78.899-53.923 145.197-126.813 164.385l-1.187 0.265zM725.333 64h-426.667v11.008c45.646 70.782 124.095 116.982 213.333 116.982s167.687-46.2 212.732-115.986l0.602-0.995zM725.333 254.421c-59.765 41.068-133.686 65.59-213.333 65.59s-153.568-24.521-214.624-66.426l1.291 0.837v193.579c0 117.821 95.513 213.333 213.333 213.333s213.333-95.513 213.333-213.333v0zM640 469.333c0-35.346-28.654-64-64-64v0h-128c-35.346 0-64 28.654-64 64s28.654 64 64 64v0h128c35.346 0 64-28.654 64-64v0z" />
<glyph unicode="&#xe940;" glyph-name="br_badge" d="M857.6 618.667c0 0.189 0.001 0.412 0.001 0.635 0 188.513-152.82 341.333-341.333 341.333s-341.333-152.82-341.333-341.333c0-84.443 30.664-161.724 81.464-221.316l-0.398 0.478v-340.736c0-0.082 0-0.179 0-0.276 0-67.087 54.385-121.472 121.472-121.472 28.904 0 55.45 10.095 76.305 26.952l-0.23-0.18 58.453 46.933 58.411-46.933c20.618-16.614 47.13-26.667 75.989-26.667 67.158 0 121.6 54.442 121.6 121.6 0 0.015 0 0.030 0 0.046v-0.002 331.093c55.532 60.275 89.584 141.082 89.6 229.842v0.003zM516.267 832c117.821 0 213.333-95.513 213.333-213.333s-95.513-213.333-213.333-213.333c-117.821 0-213.333 95.513-213.333 213.333v0c0.146 117.762 95.571 213.188 213.319 213.333h0.014zM567.893 128.555c-15.165 12.342-34.72 19.818-56.021 19.818s-40.856-7.476-56.184-19.947l0.163 0.129-71.851-57.515v233.045c38.948-16.913 84.312-26.753 131.974-26.753 44.644 0 87.272 8.632 126.305 24.319l-2.28-0.809v-229.803z" />
<glyph unicode="&#xe941;" glyph-name="br_ban" d="M512 960c-282.77 0-512-229.23-512-512s229.23-512 512-512c282.77 0 512 229.23 512 512v0c-0.316 282.643-229.358 511.685-511.97 512h-0.030zM512 832c83.375-0.010 160.503-26.746 223.286-72.109l-1.12 0.771-534.827-534.784c-44.595 61.851-71.324 139.164-71.324 222.72 0 211.747 171.655 383.403 383.403 383.403 0.205 0 0.41 0 0.615 0h-0.032zM512 64c-83.361 0.004-160.477 26.742-223.241 72.108l1.118-0.769 534.784 534.827c44.614-61.86 71.354-139.189 71.354-222.763 0-211.747-171.655-383.403-383.403-383.403-0.216 0-0.431 0-0.647 0.001h0.034z" />
<glyph unicode="&#xe942;" glyph-name="br_band_aid" d="M469.333 554.667c0-35.346-28.654-64-64-64s-64 28.654-64 64c0 35.346 28.654 64 64 64v0c35.346 0 64-28.654 64-64v0zM618.667 618.667c-35.346 0-64-28.654-64-64s28.654-64 64-64c35.346 0 64 28.654 64 64v0c0 35.346-28.654 64-64 64v0zM405.333 405.333c-35.346 0-64-28.654-64-64s28.654-64 64-64c35.346 0 64 28.654 64 64v0c0 35.346-28.654 64-64 64v0zM618.667 405.333c-35.346 0-64-28.654-64-64s28.654-64 64-64c35.346 0 64 28.654 64 64v0c0 35.346-28.654 64-64 64v0zM1024 554.667v-213.333c-0.146-129.544-105.122-234.521-234.653-234.667h-554.681c-129.544 0.146-234.521 105.122-234.667 234.653v213.347c0.146 129.544 105.122 234.521 234.653 234.667h554.681c129.544-0.146 234.521-105.122 234.667-234.653v-0.014zM789.333 234.667c7.556 0.007 14.923 0.799 22.029 2.299l-0.696-0.123v422.4c-6.319 1.33-13.579 2.091-21.018 2.091-0.111 0-0.222 0-0.333-0.001h-554.65c-7.556-0.007-14.923-0.799-22.029-2.299l0.696 0.123v-422.4c6.319-1.33 13.579-2.091 21.018-2.091 0.111 0 0.222 0 0.333 0.001h-0.017z" />
<glyph unicode="&#xe943;" glyph-name="br_bank" d="M1024 0c0-35.346-28.654-64-64-64v0h-896c-35.346 0-64 28.654-64 64s28.654 64 64 64v0h896c35.346 0 64-28.654 64-64v0zM15.787 561.451c-9.895 17.847-15.719 39.135-15.719 61.784 0 26.443 7.939 51.031 21.563 71.512l-0.297-0.475c19.451 29.584 45.037 53.588 75.082 70.648l1.078 0.563 305.451 166.699c31.473 17.592 69.055 27.95 109.056 27.95s77.583-10.359 110.209-28.54l-1.153 0.59 305.493-166.699c31.093-17.613 56.661-41.585 75.611-70.309l0.506-0.816c13.392-20.049 21.371-44.704 21.371-71.222 0-22.607-5.799-43.861-15.991-62.353l0.338 0.668c-22.112-40.765-63.805-68.43-112.122-70.392l-0.262-0.008v-213.717h21.333c35.346 0 64-28.654 64-64s-28.654-64-64-64v0h-810.667c-35.346 0-64 28.654-64 64s28.654 64 64 64v0h21.333v213.717c-48.512 2.033-90.129 29.682-111.864 69.698l-0.349 0.702zM256 277.333h85.333v213.333h-85.333zM469.333 490.667v-213.333h85.333v213.333zM768 277.333v213.333h-85.333v-213.333zM128 623.488c0.537-2.679 2.811-4.69 5.576-4.821l0.013-0.001h756.821c2.772 0.216 5.017 2.229 5.582 4.866l0.007 0.041c-7.885 12.179-18.208 22.12-30.341 29.336l-0.421 0.232-305.493 166.656c-13.767 7.692-30.205 12.222-47.701 12.222s-33.934-4.53-48.206-12.48l0.505 0.258-305.536-166.656c-12.622-7.406-22.975-17.39-30.59-29.294l-0.215-0.359z" />
<glyph unicode="&#xe944;" glyph-name="br_barber_shop" d="M853.333 618.667v-85.333h106.667c35.346 0 64-28.654 64-64s-28.654-64-64-64v0h-106.667v-85.333h106.667c35.346 0 64-28.654 64-64s-28.654-64-64-64v0h-106.667v-192c0-35.346-28.654-64-64-64s-64 28.654-64 64v0 768c0.121 105.99 86.010 191.879 191.989 192h42.678c35.346 0 64-28.654 64-64s-28.654-64-64-64v0h-42.667c-35.346 0-64-28.654-64-64v0-21.333h106.667c35.346 0 64-28.654 64-64s-28.654-64-64-64v0zM682.667 138.667c0.001-0.233 0.002-0.509 0.002-0.786 0-111.6-90.47-202.069-202.069-202.069-54.022 0-103.094 21.199-139.348 55.733l0.083-0.078c-36.137-34.202-85.047-55.231-138.869-55.231-111.671 0-202.197 90.527-202.197 202.197 0 71.363 36.97 134.091 92.802 170.077l0.798 0.482c49.237 59.733 115.712 149.333 171.221 233.557-73.515 121.088-137.088 254.080-137.088 353.451 0 35.346 28.654 64 64 64s64-28.654 64-64v0c0-55.808 35.285-139.435 85.333-228.907 50.048 89.6 85.333 173.141 85.333 228.907 0 35.346 28.654 64 64 64s64-28.654 64-64v0c0-99.371-63.616-232.405-137.259-353.323 55.467-84.267 121.941-173.952 171.221-233.515 56.785-36.365 93.913-99.081 94.037-170.477v-0.019zM277.333 138.667c0 41.237-33.429 74.667-74.667 74.667s-74.667-33.429-74.667-74.667c0-41.237 33.429-74.667 74.667-74.667v0c41.218 0.049 74.618 33.449 74.667 74.662v0.005zM341.333 285.867c19.629 18.304 43.059 32.822 68.946 42.219l1.411 0.448c-21.333 28.075-45.355 61.355-70.357 97.451-25.003-36.096-49.152-69.376-70.357-97.451 27.298-9.844 50.728-24.363 70.478-42.778l-0.12 0.111zM554.667 138.837c-0.097 41.164-33.489 74.496-74.666 74.496-41.237 0-74.667-33.429-74.667-74.667s33.429-74.667 74.667-74.667v0c41.218 0.049 74.618 33.449 74.667 74.662v0.005z" />
<glyph unicode="&#xe945;" glyph-name="br_baseball" d="M512 960c-282.77 0-512-229.23-512-512s229.23-512 512-512c282.77 0 512 229.23 512 512v0c-0.316 282.643-229.358 511.685-511.97 512h-0.030zM820.523 220.331c-18.444 18.253-34.644 38.716-48.187 60.973l-0.795 1.406c23.008 9.96 38.813 32.468 38.813 58.666 0 35.205-28.539 63.744-63.744 63.744-6.319 0-12.423-0.919-18.187-2.632l0.451 0.115c-2.124 13.546-3.406 29.263-3.54 45.255l-0.001 0.142c0.125 16.185 1.424 31.961 3.815 47.375l-0.231-1.807c5.284-1.729 11.372-2.781 17.689-2.9l0.060-0.001c35.005 0.446 63.21 28.927 63.21 63.995 0 26.062-15.577 48.485-37.929 58.467l-0.406 0.162c14.337 23.663 30.537 44.125 48.954 62.352l0.027 0.027c47.133-62.711 75.48-141.879 75.48-227.669s-28.347-164.959-76.186-228.651l0.706 0.982zM203.477 675.669c18.444-18.253 34.644-38.716 48.187-60.973l0.795-1.406c-22.758-10.144-38.336-32.567-38.336-58.629 0-35.069 28.205-63.549 63.168-63.995h0.042c6.377 0.12 12.465 1.172 18.193 3.026l-0.444-0.124c2.16-13.607 3.459-29.382 3.583-45.437l0.001-0.131c-0.135-16.134-1.418-31.851-3.77-47.216l0.229 1.819c-5.312 1.597-11.416 2.517-17.736 2.517-35.205 0-63.744-28.539-63.744-63.744 0-26.199 15.805-48.706 38.401-58.507l0.412-0.159c-14.337-23.663-30.537-44.125-48.954-62.352l-0.027-0.027c-47.133 62.711-75.48 141.879-75.48 227.669s28.347 164.959 76.186 228.651l-0.706-0.982zM295.253 131.285c31.556 31.462 58.398 67.628 79.39 107.362l1.165 2.419 9.259-3.115c6.047-2.088 13.016-3.293 20.267-3.293 35.351 0 64.008 28.657 64.008 64.008 0 28.1-18.108 51.971-43.291 60.581l-0.45 0.134-7.765 2.56c5.416 25.78 8.621 55.482 8.831 85.895l0.001 0.163c-0.211 30.577-3.416 60.279-9.337 88.989l0.505-2.93 7.765 2.56c25.634 8.744 43.741 32.615 43.741 60.715 0 35.351-28.657 64.008-64.008 64.008-7.25 0-14.219-1.206-20.717-3.427l0.45 0.134-9.259-3.115c-22.157 42.154-48.999 78.32-80.544 109.771l-0.010 0.010c60.601 42.114 135.735 67.282 216.747 67.282s156.145-25.168 218.009-68.111l-1.262 0.829c-31.556-31.462-58.398-67.628-79.39-107.362l-1.165-2.419-9.259 3.115c-6.047 2.088-13.016 3.293-20.267 3.293-35.351 0-64.008-28.657-64.008-64.008 0-28.1 18.108-51.971 43.291-60.581l0.45-0.134 7.765-2.56c-5.416-25.78-8.621-55.482-8.831-85.895l-0.001-0.163c0.211-30.577 3.416-60.279 9.337-88.989l-0.505 2.93-7.765-2.56c-25.634-8.744-43.741-32.615-43.741-60.715 0-35.351 28.657-64.008 64.008-64.008 7.25 0 14.219 1.206 20.717 3.427l-0.45-0.134 9.259 3.115c22.157-42.154 48.999-78.32 80.544-109.771l0.010-0.010c-60.601-42.114-135.735-67.282-216.747-67.282s-156.145 25.168-218.009 68.111l1.262-0.829z" />
<glyph unicode="&#xe946;" glyph-name="br_basketball" d="M512 960c-282.77 0-512-229.23-512-512s229.23-512 512-512c282.77 0 512 229.23 512 512v0c-0.316 282.643-229.358 511.685-511.97 512h-0.030zM455.168 300.672l56.832 56.832 222.165-222.165c-49.922-36.036-110.434-60.539-176.063-68.389l-1.814-0.177c-14.273 89.549-50.086 168.872-101.954 235.002l0.834-1.103zM568.832 595.328l-56.832-56.832-222.123 222.165c49.894 36.035 110.378 60.537 175.978 68.389l1.814 0.177c14.318-89.547 50.14-168.864 101.999-235.006l-0.836 1.107zM421.504 448l-56.832-56.832c-65.035 51.023-144.351 86.845-230.988 100.777l-2.911 0.386c8.018 67.416 32.522 127.901 69.337 178.915l-0.771-1.123zM602.496 448l56.832 56.832c65.035-51.023 144.351-86.845 230.988-100.777l2.911-0.386c-8.026-67.429-32.529-127.927-69.338-178.96l0.773 1.126zM885.632 535.125c-142.469 33.976-252.552 144.073-285.98 283.94l-0.526 2.609c142.289-34.311 252.216-144.253 285.97-283.921l0.536-2.628zM138.368 360.875c142.453-33.978 252.528-144.053 285.98-283.896l0.527-2.611c-142.294 34.277-252.23 144.213-285.971 283.879l-0.536 2.627z" />
<glyph unicode="&#xe947;" glyph-name="br_bell" d="M962.219 396.373l-74.752 268.544c-48.893 171.381-204.096 294.746-388.113 294.746-191.503 0-351.8-133.607-392.763-312.691l-0.521-2.706-57.771-259.797c-3.551-15.297-5.587-32.861-5.587-50.901 0-129.587 105.038-234.641 234.619-234.667h17.069c28.065-94.839 114.399-162.855 216.619-162.855s188.553 68.016 216.213 161.259l0.406 1.596h8.235c0.008 0 0.018 0 0.027 0 129.603 0 234.667 105.064 234.667 234.667 0 22.354-3.126 43.979-8.964 64.46l0.403-1.655zM821.035 269.056c-19.515-25.717-50.099-42.156-84.523-42.156-0.15 0-0.3 0-0.449 0.001h-458.729c-58.9 0.013-106.644 47.764-106.644 106.667 0 8.196 0.924 16.176 2.674 23.841l-0.138-0.716 57.771 260.267c28.204 124.168 137.64 215.461 268.398 215.461 125.718 0 231.726-84.391 264.464-199.614l0.471-1.938 74.581-268.544c2.547-8.645 4.013-18.577 4.013-28.852 0-24.354-8.234-46.785-22.071-64.66l0.181 0.243z" />
<glyph unicode="&#xe948;" glyph-name="br_bell_ring" d="M9.429 777.259c-5.878 9.491-9.362 21.002-9.362 33.327 0 23.031 12.165 43.22 30.42 54.493l0.275 0.158 139.435 85.333c9.97 6.722 22.253 10.73 35.472 10.73 35.346 0 64-28.654 64-64 0-23.881-13.080-44.707-32.467-55.705l-0.317-0.166-139.477-85.333c-9.491-5.878-21.002-9.362-33.327-9.362-23.031 0-43.22 12.165-54.493 30.42l-0.158 0.275zM993.621 192.725c-9.554 5.981-21.162 9.528-33.598 9.528-22.906 0-43.001-12.033-54.309-30.123l-0.157-0.269-85.333-138.283c-6.409-9.801-10.222-21.804-10.222-34.698 0-35.346 28.654-64 64-64 23.342 0 43.766 12.497 54.946 31.164l0.162 0.291 85.333 138.283c6.012 9.572 9.578 21.209 9.578 33.679 0 22.909-12.037 43.006-30.13 54.314l-0.269 0.157zM888.96 299.392l-153.6-250.24c-37.486-60.669-100.246-102.644-173.222-111.295l-1.114-0.107c-8.464-1.034-18.291-1.638-28.253-1.664h-0.035c-54.806 0.225-105.136 19.203-144.951 50.844l0.481-0.369c-32.090-31.14-75.92-50.338-124.234-50.338-98.569 0-178.475 79.906-178.475 178.475 0 47.423 18.496 90.526 48.667 122.488l-0.081-0.087-63.744 64c-43.19 42.843-69.927 102.216-69.927 167.833 0 9.855 0.603 19.57 1.775 29.108l-0.115-1.144c8.65 73.487 50.242 135.752 109.378 172.394l1 0.577 234.112 144.512c58.418 37.896 129.854 60.427 206.552 60.427 83.837 0 161.386-26.921 224.475-72.589l-1.118 0.77 52.907 52.949c11.585 11.585 27.591 18.751 45.269 18.751 35.358 0 64.021-28.663 64.021-64.021 0-17.679-7.166-33.684-18.751-45.269l-52.864-52.864c44.692-62.208 71.47-139.904 71.47-223.854 0-69.604-18.409-134.909-50.623-191.312l0.998 1.896zM735.36 670.891c-46.528 46.803-110.953 75.77-182.143 75.77-51.502 0-99.464-15.161-139.665-41.263l0.997 0.607-234.667-145.067c-27.442-17.036-46.412-45.49-50.299-78.559l-0.048-0.502c-0.481-3.847-0.755-8.3-0.755-12.817 0-30.366 12.396-57.836 32.404-77.627l0.010-0.010 294.912-295.595c19.772-19.686 47.041-31.857 77.152-31.857 39.183 0 73.552 20.608 92.862 51.576l0.268 0.462 152.448 248.235c20.224 35.884 32.14 78.782 32.14 124.463 0 71.127-28.886 135.506-75.568 182.048l-0.006 0.006z" />
<glyph unicode="&#xe949;" glyph-name="br_bell_school" d="M405.333 618.667c35.346 0 64-28.654 64-64s-28.654-64-64-64c-35.346 0-64 28.654-64 64v0c0 35.346 28.654 64 64 64v0zM874.667 661.333c-80.070-3.048-143.824-68.695-143.824-149.232 0-79.245 61.726-144.074 139.72-149.029l0.434-0.022c-53.333-152.96-189.696-264.533-377.387-298.667-1.073-0.212-2.306-0.334-3.568-0.334-4.891 0-9.356 1.825-12.751 4.831l0.020-0.018c-4.887 4.021-7.98 10.070-7.98 16.841 0 0.080 0 0.159 0.001 0.238v-0.012 68.907c91.373 14.55 170.652 58.177 229.876 120.935l0.183 0.195c10.854 11.446 17.529 26.949 17.529 44.011 0 35.354-28.66 64.014-64.014 64.014-18.292 0-34.793-7.673-46.458-19.975l-0.027-0.029c-50.184-53.399-121.266-86.658-200.116-86.658-0.342 0-0.683 0.001-1.025 0.002h0.053c-0.078 0-0.17 0-0.263 0-153.167 0-277.333 124.166-277.333 277.333s124.166 277.333 277.333 277.333c92.632 0 174.658-45.415 225.025-115.194l0.561-0.816c11.732-16.51 30.787-27.152 52.328-27.152 35.346 0 64 28.654 64 64 0 14.189-4.617 27.299-12.431 37.91l0.124-0.177c-74.41 103.434-194.441 169.999-330.019 169.999-223.859 0-405.333-181.474-405.333-405.333 0-201.503 147.037-368.664 339.672-400.042l2.337-0.314v-69.12c0-0.035 0-0.077 0-0.118 0-46.157 20.893-87.433 53.737-114.889l0.236-0.192c25.45-21.462 58.599-34.519 94.797-34.56h0.009c9.331 0.015 18.448 0.884 27.291 2.532l-0.923-0.143c303.573 55.125 507.52 285.611 507.52 573.611-0.6 82.232-67.101 148.733-149.276 149.333h-0.057z" />
<glyph unicode="&#xe94a;" glyph-name="br_billiard" d="M512 704c-141.385 0-256-114.615-256-256s114.615-256 256-256c141.385 0 256 114.615 256 256v0c0 141.385-114.615 256-256 256v0zM630.869 479.104l-85.333-170.667c-11.387-18.751-31.698-31.087-54.891-31.087-35.349 0-64.004 28.656-64.004 64.004 0 12.156 3.389 23.521 9.274 33.201l-0.16-0.284 33.579 73.728h-21.333c-35.346 0-64 28.654-64 64s28.654 64 64 64v0h128c35.334-0.017 63.971-28.664 63.971-64 0-12.148-3.384-23.505-9.262-33.18l0.16 0.284zM512-64c-282.77 0-512 229.23-512 512s229.23 512 512 512c282.77 0 512-229.23 512-512v0c-0.316-282.643-229.358-511.685-511.97-512h-0.030zM512 832c-212.077 0-384-171.923-384-384s171.923-384 384-384c212.077 0 384 171.923 384 384v0c-0.243 211.98-172.021 383.758-383.977 384h-0.023z" />
<glyph unicode="&#xe94b;" glyph-name="br_bold" d="M766.037 505.045c28.012 44.588 44.629 98.796 44.629 156.886 0 164.619-133.45 298.069-298.069 298.069-0.21 0-0.42 0-0.629-0.001h-298.635c-47.128 0-85.333-38.205-85.333-85.333v0-853.333c0-47.128 38.205-85.333 85.333-85.333v0h426.667c0.094 0 0.205 0 0.317 0 164.808 0 298.411 133.603 298.411 298.411 0 119.18-69.867 222.042-170.876 269.862l-1.814 0.772zM298.667 789.333h213.333c70.692 0 128-57.308 128-128s-57.308-128-128-128v0h-213.333zM640 106.667h-341.333v256h341.333c70.692 0 128-57.308 128-128s-57.308-128-128-128v0z" />
<glyph unicode="&#xe94c;" glyph-name="br_book" d="M704 960h-341.333c-153.089-0.194-277.139-124.244-277.333-277.315v-554.686c0.121-105.99 86.010-191.879 191.989-192h426.678c129.534 0.17 234.497 105.132 234.667 234.65v554.683c-0.17 129.534-105.132 234.497-234.65 234.667h-0.016zM341.333 829.824v-509.824h-64c-23.037-0.227-45.002-4.526-65.305-12.209l1.305 0.433v374.443c0.219 74.721 55.375 136.493 127.19 147.059l0.81 0.098zM810.667 170.667c0-58.91-47.756-106.667-106.667-106.667v0h-426.667c-35.346 0-64 28.654-64 64s28.654 64 64 64v0h533.333zM469.333 320v512h234.667c58.91 0 106.667-47.756 106.667-106.667v0-405.333z" />
<glyph unicode="&#xe94d;" glyph-name="br_book_alt" d="M939.691 862.805c-40.386 33.834-92.903 54.382-150.22 54.382-15.486 0-30.621-1.5-45.268-4.362l1.483 0.241-140.075-29.355c-36.361-6.658-68.178-22.756-93.797-45.646l0.186 0.163c-24.923 22.57-56.174 38.598-90.779 45.129l-1.168 0.183-143.403 29.867c-12.623 2.408-27.143 3.786-41.984 3.786-129.554 0-234.588-104.985-234.667-234.52v-417.799c0-0.097 0-0.211 0-0.325 0-114.344 81.9-209.56 190.239-230.184l1.463-0.232 247.765-48.939c21.704-4.153 46.668-6.528 72.187-6.528 0.032 0 0.063 0 0.095 0h-0.005c26.075 0.018 51.569 2.454 76.285 7.098l-2.557-0.399 245.845 48.768c110.243 20.587 192.591 116.012 192.683 230.689v417.845c0 0.068 0 0.148 0 0.229 0 72.144-32.632 136.666-83.942 179.611l-0.367 0.299zM448 113.963l-232.405 45.909c-50.144 9.358-87.595 52.779-87.595 104.948 0 0.004 0 0.009 0 0.013v-0.001 417.835c0.168 58.753 47.679 106.353 106.381 106.667h0.030c0.056 0 0.123 0 0.189 0 6.177 0 12.221-0.575 18.079-1.673l-0.604 0.094 143.403-29.867c30.060-5.627 52.508-31.656 52.523-62.932v-0.002zM896 264.832c-0.101-52.471-37.982-96.065-87.884-105.034l-0.649-0.097-231.467-45.739v580.992c0.192 31.833 23.425 58.183 53.854 63.223l0.375 0.051 140.032 29.312c5.734 1.093 12.33 1.719 19.072 1.719 58.885 0 106.625-47.715 106.667-106.59v-0.004z" />
<glyph unicode="&#xe94e;" glyph-name="br_bookmark" d="M746.667 960h-469.333c-129.534-0.17-234.497-105.132-234.667-234.65v-638.821c0.091-82.406 66.915-149.173 149.333-149.173 42.725 0 81.259 17.943 108.479 46.704l0.065 0.069 209.579 221.867 213.888-224c27.241-28.484 65.547-46.189 107.99-46.189 82.393 0 149.201 66.726 149.333 149.088v640.44c-0.17 129.534-105.132 234.497-234.65 234.667h-0.016zM853.333 84.907c-0.023-11.765-9.565-21.293-21.333-21.293-6.051 0-11.513 2.519-15.396 6.566l-0.007 0.007-260.267 272.683c-11.675 12.209-28.093 19.798-46.283 19.798-0.064 0-0.127 0-0.191 0h0.010c-18.245-0.056-34.685-7.738-46.308-20.023l-0.028-0.030-256-270.72c-3.762-4.234-9.222-6.889-15.301-6.889-2.937 0-5.729 0.62-8.254 1.735l0.131-0.052c-7.904 2.825-13.459 10.248-13.459 18.968 0 0.307 0.007 0.612 0.020 0.915l-0.002-0.043v638.805c0 58.91 47.756 106.667 106.667 106.667v0h469.333c58.91 0 106.667-47.756 106.667-106.667v0z" />
<glyph unicode="&#xe94f;" glyph-name="br_bowling" d="M682.667 298.667c0-35.346-28.654-64-64-64s-64 28.654-64 64c0 35.346 28.654 64 64 64v0c35.346 0 64-28.654 64-64v0zM725.333 298.667c0-35.346 28.654-64 64-64s64 28.654 64 64c0 35.346-28.654 64-64 64v0c-35.346 0-64-28.654-64-64v0zM768 426.667c0 35.346-28.654 64-64 64s-64-28.654-64-64c0-35.346 28.654-64 64-64v0c35.346 0 64 28.654 64 64v0zM1024 298.667c0-0.153 0-0.334 0-0.515 0-200.012-162.142-362.155-362.155-362.155-80.133 0-154.187 26.026-214.171 70.085l1.008-0.706c-32.42-42.057-82.679-68.991-139.244-69.376h-106.73c-72.805 0.57-135.194 44.572-162.581 107.349l-0.448 1.152c-25.103 57.292-39.712 124.064-39.712 194.248 0 1.97 0.012 3.937 0.034 5.902l-0.003-0.299c4.786 85.892 33.218 164.296 78.828 229.854l-0.961-1.459c25.536 34.999 43.317 77.238 49.955 123.084l0.179 1.503c-6.571 39.796-14.7 74.038-24.905 107.373l1.523-5.784c-9.147 26.294-15.955 56.959-19.145 88.69l-0.14 1.72c-0.111 2.256-0.175 4.899-0.175 7.556 0 90.18 73.105 163.285 163.285 163.285 2.658 0 5.301-0.063 7.927-0.189l-0.371 0.014c2.256 0.111 4.899 0.175 7.556 0.175 90.18 0 163.285-73.105 163.285-163.285 0-2.658-0.063-5.301-0.189-7.927l0.014 0.371c-3.33-33.452-10.138-64.116-20.145-93.295l0.86 2.884c-8.687-27.559-16.816-61.801-22.714-96.8l-0.667-4.789c0.823-18.709 5.218-36.192 12.516-52.065l-0.356 0.865c66.378 71.006 160.608 115.26 265.173 115.26 200.295 0 362.667-162.371 362.667-362.667 0-0.021 0-0.042 0-0.063v0.003zM213.333 789.333c0.853-4.992 8.96-35.157 14.891-57.131 7.339-27.392 13.312-50.475 18.005-70.869h19.541c4.693 20.395 10.667 43.477 18.005 70.869 5.931 21.973 14.037 52.139 14.891 60.459 0 26.965-12.373 39.339-42.667 39.339s-42.667-12.373-42.667-42.667zM355.072 95.787c18.314 42.255 28.968 91.465 28.968 143.164 0 1.899-0.014 3.795-0.043 5.687l0.003-0.286c-5.728 62.205-27.625 118.375-61.401 165.443l0.686-1.006c-23.005 35.819-42.696 77.044-56.985 120.715l-1.084 3.829h-18.432c-15.373-47.5-35.064-88.725-59.369-126.715l1.299 2.171c-33.090-46.063-54.986-102.232-60.616-163.116l-0.099-1.321c-0.026-1.614-0.040-3.519-0.040-5.427 0-51.675 10.654-100.862 29.884-145.485l-0.916 2.389c7.431-18.47 25.001-31.364 45.639-31.828l0.057-0.001h106.667c20.716 0.435 38.317 13.316 45.661 31.449l0.121 0.338zM896 298.667c0 0.126 0 0.276 0 0.425 0 129.391-104.892 234.283-234.283 234.283-83.822 0-157.363-44.021-198.765-110.205l-0.574-0.983c29.842-51.079 48.066-112.169 49.613-177.388l0.008-0.447c-0.054-40.859-4.715-80.602-13.491-118.772l0.691 3.572c42.059-40.449 99.315-65.361 162.39-65.361 129.461 0 234.411 104.949 234.411 234.411 0 0.163 0 0.327-0.001 0.49v-0.025z" />
<glyph unicode="&#xe950;" glyph-name="br_box" d="M1024 725.333c-0.146 129.544-105.122 234.521-234.653 234.667h-554.681c-129.544-0.146-234.521-105.122-234.667-234.653v-42.681c0.016-40.598 16.3-77.389 42.686-104.212l-0.020 0.020v-407.808c0.146-129.544 105.122-234.521 234.653-234.667h469.347c129.544 0.146 234.521 105.122 234.667 234.653v407.822c26.367 26.803 42.65 63.594 42.667 104.189v0.003zM128 725.333c0 58.91 47.756 106.667 106.667 106.667v0h554.667c58.91 0 106.667-47.756 106.667-106.667v0-42.667c0-11.782-9.551-21.333-21.333-21.333v0h-725.333c-11.782 0-21.333 9.551-21.333 21.333v0zM853.333 170.667c0-58.91-47.756-106.667-106.667-106.667v0h-469.333c-58.91 0-106.667 47.756-106.667 106.667v0 362.667h682.667zM405.333 448h213.333c35.346 0 64-28.654 64-64s-28.654-64-64-64h-213.333c-35.346 0-64 28.654-64 64s28.654 64 64 64z" />
<glyph unicode="&#xe951;" glyph-name="br_box_alt" d="M789.333 960h-554.667c-129.534-0.17-234.497-105.132-234.667-234.65v-554.683c0.17-129.534 105.132-234.497 234.65-234.667h554.683c129.534 0.17 234.497 105.132 234.667 234.65v554.683c-0.17 129.534-105.132 234.497-234.65 234.667h-0.016zM893.824 746.667h-211.157v85.333h106.667c51.35-0.010 94.22-36.304 104.369-84.639l0.122-0.695zM469.333 832h85.333v-170.667c0-23.564-19.103-42.667-42.667-42.667s-42.667 19.103-42.667 42.667v0zM234.667 832h106.667v-85.333h-211.157c10.27 49.029 53.141 85.323 104.49 85.333h0.001zM789.333 64h-554.667c-58.91 0-106.667 47.756-106.667 106.667v0 448h219.392c19.331-74.13 85.683-127.96 164.608-127.96s145.277 53.83 164.346 126.778l0.262 1.182h219.392v-448c0-58.91-47.756-106.667-106.667-106.667v0zM810.667 213.333c0-35.346-28.654-64-64-64v0h-128c-35.346 0-64 28.654-64 64s28.654 64 64 64v0h128c35.346 0 64-28.654 64-64v0z" />
<glyph unicode="&#xe952;" glyph-name="br_briefcase" d="M789.333 832h-27.392c-19.57 73.989-85.775 127.695-164.573 128h-170.702c-78.833-0.305-145.038-54.011-164.34-126.809l-0.268-1.191h-27.392c-129.544-0.146-234.521-105.122-234.667-234.653v-426.681c0.146-129.544 105.122-234.521 234.653-234.667h554.681c129.534 0.17 234.497 105.132 234.667 234.65v426.683c-0.17 129.534-105.132 234.497-234.65 234.667h-0.016zM234.667 704h554.667c58.91 0 106.667-47.756 106.667-106.667v0-106.667h-768v106.667c0 58.91 47.756 106.667 106.667 106.667v0zM789.333 64h-554.667c-58.91 0-106.667 47.756-106.667 106.667v0 192h298.667c0-47.128 38.205-85.333 85.333-85.333v0 0c47.128 0 85.333 38.205 85.333 85.333v0h298.667v-192c0-58.91-47.756-106.667-106.667-106.667v0z" />
<glyph unicode="&#xe953;" glyph-name="br_broom" d="M1005.483 883.456c-11.581 11.578-27.578 18.738-45.248 18.738s-33.667-7.161-45.248-18.739l-203.264-203.264c-41.448 37.361-96.607 60.216-157.104 60.216-51.109 0-98.407-16.312-136.974-44.013l0.702 0.48c-49.753-37.392-107.111-68.509-168.789-90.537l-4.523-1.409-76.331-22.357c-98.294-29.465-168.695-119.112-168.695-225.202 0-33.901 7.189-66.123 20.125-95.225l-0.593 1.494c47.79-116.392 131.879-209.787 237.963-268.133l2.762-1.392c76.227-36.638 165.727-58.044 260.227-58.044 5.34 0 10.664 0.068 15.971 0.204l-0.785-0.016h2.688c0.013 0 0.028 0 0.043 0 33.483 0 64.369 11.125 89.161 29.88l-0.371-0.269c131.549 95.283 224.658 236.656 255.791 400.005l0.635 4.006c2.236 12.221 3.514 26.284 3.514 40.646 0 66.131-27.104 125.932-70.809 168.9l-0.033 0.033-12.288 11.947 201.6 201.643c11.514 11.57 18.632 27.525 18.632 45.141 0 17.68-7.169 33.686-18.759 45.269v0zM549.803 67.883c-3.149-2.276-7.088-3.64-11.345-3.64-0.257 0-0.512 0.005-0.766 0.015l0.037-0.001c-47.257 0.015-93.347 4.971-137.794 14.378l4.332-0.768c57.727 36.487 105.876 82.637 143.491 136.669l1.063 1.614 21.077 31.019c7.389 10.299 11.816 23.159 11.816 37.052 0 35.346-28.654 64-64 64-22.357 0-42.036-11.463-53.481-28.833l-0.149-0.241-21.077-30.933c-35.116-50.841-81.387-91.567-135.449-119.232l-2.066-0.96-44.288-22.229c-24.942 20.347-46.747 43.018-65.59 68.045l-0.714 0.99c61.684 25.543 114.439 60.712 159.036 104.207l-0.103-0.1c11.464 11.562 18.547 27.482 18.547 45.056 0 35.346-28.654 64-64 64-17.129 0-32.686-6.729-44.172-17.688l0.025 0.024c-36.45-35.407-80.339-63.373-129.077-81.312l-2.55-0.821c-2.738 8.952-4.314 19.242-4.314 29.9 0 47.99 31.961 88.516 75.758 101.452l0.748 0.19 76.245 22.4c70.34 23.781 131.386 54.96 186.838 93.609l-2.39-1.577 269.995-263.125c-38.429-99.612-102.49-182.178-184.19-242.111l-1.495-1.047z" />
<glyph unicode="&#xe954;" glyph-name="br_browser" d="M213.333 469.333c0 35.346 28.654 64 64 64v0h469.333c35.346 0 64-28.654 64-64s-28.654-64-64-64v0h-469.333c-35.346 0-64 28.654-64 64v0zM277.333 192h298.667c35.346 0 64 28.654 64 64s-28.654 64-64 64v0h-298.667c-35.346 0-64-28.654-64-64s28.654-64 64-64v0zM1024 682.667v-469.333c-0.146-129.544-105.122-234.521-234.653-234.667h-554.681c-129.544 0.146-234.521 105.122-234.667 234.653v469.347c0.146 129.544 105.122 234.521 234.653 234.667h554.681c129.544-0.146 234.521-105.122 234.667-234.653v-0.014zM341.333 768c0-35.346 28.654-64 64-64s64 28.654 64 64c0 35.346-28.654 64-64 64v0c-35.346 0-64-28.654-64-64v0zM128 768c0-35.346 28.654-64 64-64s64 28.654 64 64c0 35.346-28.654 64-64 64v0c-35.346 0-64-28.654-64-64v0zM896 618.667h-768v-405.333c0-58.91 47.756-106.667 106.667-106.667v0h554.667c58.91 0 106.667 47.756 106.667 106.667v0z" />
<glyph unicode="&#xe955;" glyph-name="br_brush" d="M789.333 960h-554.667c-129.534-0.17-234.497-105.132-234.667-234.65v-213.349c0.194-176.653 143.347-319.806 319.981-320h21.352v-85.333c0-94.257 76.41-170.667 170.667-170.667s170.667 76.41 170.667 170.667v0 85.333h21.333c176.653 0.194 319.806 143.347 320 319.981v213.352c-0.17 129.534-105.132 234.497-234.65 234.667h-0.016zM234.667 832h21.333v-21.333c0-35.346 28.654-64 64-64s64 28.654 64 64v0 21.333h85.333v-106.667c0-35.346 28.654-64 64-64s64 28.654 64 64v0 106.667h85.333v-192c0-35.346 28.654-64 64-64s64 28.654 64 64v0 189.824c49.029-10.27 85.323-53.141 85.333-104.49v-192.001h-768v192c0 58.91 47.756 106.667 106.667 106.667v0zM704 320h-85.333c-35.346 0-64-28.654-64-64v0-149.333c0-23.564-19.103-42.667-42.667-42.667s-42.667 19.103-42.667 42.667v0 149.333c0 35.346-28.654 64-64 64v0h-85.333c-66.216 0.056-124.58 33.622-159.055 84.654l-0.433 0.679h702.976c-34.908-51.711-93.272-85.278-159.48-85.333h-0.008z" />
<glyph unicode="&#xe956;" glyph-name="br_bug" d="M919.125 661.333c0.013 0 0.028 0 0.043 0 57.897 0 104.832 46.935 104.832 104.832 0 0.015 0 0.030 0 0.045v-0.002 129.792c0 35.346-28.654 64-64 64v0 0c-35.346 0-64-28.654-64-64v0-106.667h-143.957c-51.395 79.592-139.653 131.534-240.043 131.534s-188.648-51.942-239.366-130.416l-0.676-1.117h-143.957v106.667c0 35.346-28.654 64-64 64v0 0c-35.346 0-64-28.654-64-64v0-129.792c0.024-57.911 46.964-104.85 104.872-104.875h119.469l-43.435-170.667h-116.907c-35.346 0-64-28.654-64-64v0 0c0-35.346 28.654-64 64-64v0h88.405c-0.683-8.533-1.792-17.067-1.792-26.197 0.053-36.311 5.475-71.337 15.514-104.352l-0.666 2.549h-60.587c-0.013 0-0.028 0-0.043 0-57.897 0-104.832-46.935-104.832-104.832 0-0.015 0-0.030 0-0.045v0.002-129.792c0-35.346 28.654-64 64-64v0 0c35.346 0 64 28.654 64 64v0 106.667h105.301c66.701-80.589 166.749-131.547 278.699-131.547s211.998 50.958 278.214 130.944l0.485 0.603h105.301v-106.667c0-35.346 28.654-64 64-64v0 0c35.346 0 64 28.654 64 64v0 129.792c-0.024 57.911-46.964 104.85-104.872 104.875h-60.589c9.373 30.466 14.795 65.491 14.848 101.775v0.027c0 8.917-1.109 17.493-1.792 26.197h88.405c35.346 0 64 28.654 64 64v0 0c0 35.346-28.654 64-64 64v0h-117.163l-42.965 170.667zM512 103.125c-128.822 0.146-233.217 104.525-233.387 233.328v0.016c0.063 9.092 0.651 17.976 1.733 26.707l-0.112-1.107 82.944 327.296c23.072 60.977 80.975 103.545 148.821 103.545s125.749-42.569 148.458-102.454l0.363-1.091 82.944-327.467c0.971-7.624 1.558-16.508 1.621-25.517v-0.083c-0.267-128.746-104.624-233.028-233.373-233.173h-0.014z" />
<glyph unicode="&#xe957;" glyph-name="br_building" d="M789.333 746.667h-107.733c-11.404 120.006-111.596 213.157-233.582 213.333h-213.351c-129.544-0.146-234.521-105.122-234.667-234.653v-554.681c0.146-129.544 105.122-234.521 234.653-234.667h554.681c129.544 0.146 234.521 105.122 234.667 234.653v341.347c-0.146 129.544-105.122 234.521-234.653 234.667h-0.014zM128 170.667v554.667c0 58.91 47.756 106.667 106.667 106.667v0h213.333c58.91 0 106.667-47.756 106.667-106.667v0-661.333h-320c-58.91 0-106.667 47.756-106.667 106.667v0zM896 170.667c0-58.91-47.756-106.667-106.667-106.667v0h-106.667v554.667h106.667c58.91 0 106.667-47.756 106.667-106.667v0zM853.333 469.333c0-35.346-28.654-64-64-64s-64 28.654-64 64c0 35.346 28.654 64 64 64v0c35.346 0 64-28.654 64-64v0zM853.333 256c0-35.346-28.654-64-64-64s-64 28.654-64 64c0 35.346 28.654 64 64 64v0c35.346 0 64-28.654 64-64v0zM298.667 682.667c0-35.346-28.654-64-64-64s-64 28.654-64 64c0 35.346 28.654 64 64 64v0c35.346 0 64-28.654 64-64v0zM298.667 469.333c0-35.346-28.654-64-64-64s-64 28.654-64 64c0 35.346 28.654 64 64 64v0c35.346 0 64-28.654 64-64v0zM512 682.667c0-35.346-28.654-64-64-64s-64 28.654-64 64c0 35.346 28.654 64 64 64v0c35.346 0 64-28.654 64-64v0zM512 469.333c0-35.346-28.654-64-64-64s-64 28.654-64 64c0 35.346 28.654 64 64 64v0c35.346 0 64-28.654 64-64v0zM298.667 256c0-35.346-28.654-64-64-64s-64 28.654-64 64c0 35.346 28.654 64 64 64v0c35.346 0 64-28.654 64-64v0zM512 256c0-35.346-28.654-64-64-64s-64 28.654-64 64c0 35.346 28.654 64 64 64v0c35.346 0 64-28.654 64-64v0z" />
<glyph unicode="&#xe958;" glyph-name="br_bulb" d="M765.312 863.147c-66.566 60.198-155.249 97.037-252.537 97.037-16.003 0-31.773-0.997-47.251-2.931l1.846 0.188c-192.786-26.4-339.725-190.019-339.725-387.957 0-111.753 46.838-212.567 121.954-283.882l0.171-0.161c40.747-38.443 48.896-93.44 48.896-169.344v-6.528c-0.001-0.242-0.002-0.528-0.002-0.815 0-94.992 76.668-172.077 171.5-172.753h83.605c94.897 0.676 171.565 77.761 171.565 172.753 0 0.286-0.001 0.573-0.002 0.859v-0.044 22.315c0 71.253 6.4 115.584 40.192 145.707 80.311 72.341 130.58 176.689 130.58 292.779s-50.269 220.438-130.227 292.465l-0.353 0.313zM597.333 109.568c0.006-0.283 0.010-0.617 0.010-0.951 0-24.277-19.383-44.026-43.518-44.616l-0.055-0.001h-83.541c-24.189 0.591-43.573 20.34-43.573 44.617 0 0.334 0.004 0.668 0.011 1.001l-0.001-0.050v6.528c0 11.051 0 22.144-0.597 33.237h171.52c0-5.845-0.256-11.691-0.256-17.451zM680.32 373.12c-28.444-25.441-50.283-57.686-63.007-94.202l-0.481-1.584h-40.832v209.792c38.391 22.393 63.821 63.311 64 110.182v0.026c0 35.346-28.654 64-64 64s-64-28.654-64-64v0c0 35.346-28.654 64-64 64s-64-28.654-64-64v0c0.179-46.897 25.609-87.815 63.394-109.881l0.606-0.327v-209.792h-44.288c-14.388 39.791-36.857 73.629-65.595 100.93l-0.112 0.105c-50.684 48.15-82.214 116.045-82.214 191.304 0 12.479 0.867 24.755 2.544 36.771l-0.159-1.388c15.138 117.364 106.758 209.405 222.619 225.047l1.338 0.148c8.96 1.114 19.33 1.749 29.849 1.749 0.006 0 0.013 0 0.019 0h-0.001c0.181 0 0.394 0.001 0.608 0.001 64.532 0 123.354-24.443 167.714-64.576l-0.215 0.191c54.068-48.793 87.903-119.117 87.903-197.344 0-78.126-33.748-148.37-87.461-196.948l-0.229-0.204z" />
<glyph unicode="&#xe959;" glyph-name="br_calculator" d="M789.333-64h-554.667c-129.544 0.146-234.521 105.122-234.667 234.653v554.681c0.146 129.544 105.122 234.521 234.653 234.667h554.681c129.544-0.146 234.521-105.122 234.667-234.653v-554.681c-0.146-129.544-105.122-234.521-234.653-234.667h-0.014zM234.667 832c-58.91 0-106.667-47.756-106.667-106.667v0-554.667c0-58.91 47.756-106.667 106.667-106.667v0h554.667c58.91 0 106.667 47.756 106.667 106.667v0 554.667c0 58.91-47.756 106.667-106.667 106.667v0zM810.667 661.333v0c0 47.128-38.205 85.333-85.333 85.333v0h-426.667c-47.128 0-85.333-38.205-85.333-85.333v0 0c0-47.128 38.205-85.333 85.333-85.333v0h426.667c47.128 0 85.333 38.205 85.333 85.333v0zM277.333 469.333c-35.346 0-64-28.654-64-64s28.654-64 64-64c35.346 0 64 28.654 64 64v0c0 35.346-28.654 64-64 64v0zM490.667 469.333c-35.346 0-64-28.654-64-64s28.654-64 64-64c35.346 0 64 28.654 64 64v0c0 35.346-28.654 64-64 64v0zM277.333 277.333c-35.346 0-64-28.654-64-64s28.654-64 64-64c35.346 0 64 28.654 64 64v0c0 35.346-28.654 64-64 64v0zM490.667 277.333c-35.346 0-64-28.654-64-64s28.654-64 64-64c35.346 0 64 28.654 64 64v0c0 35.346-28.654 64-64 64v0zM810.667 213.333c0 35.346-28.654 64-64 64v0h-42.667c-35.346 0-64-28.654-64-64s28.654-64 64-64v0h42.667c35.346 0 64 28.654 64 64v0zM810.667 405.333c0 35.346-28.654 64-64 64v0h-42.667c-35.346 0-64-28.654-64-64s28.654-64 64-64v0h42.667c35.346 0 64 28.654 64 64v0z" />
<glyph unicode="&#xe95a;" glyph-name="br_calendar" d="M789.333 874.667h-21.333v21.333c0 35.346-28.654 64-64 64v0 0c-35.346 0-64-28.654-64-64v0-21.333h-256v21.333c0 35.346-28.654 64-64 64v0 0c-35.346 0-64-28.654-64-64v0-21.333h-21.333c-129.603 0-234.667-105.064-234.667-234.667v0-469.333c0-129.603 105.064-234.667 234.667-234.667v0h554.667c129.603 0 234.667 105.064 234.667 234.667v0 469.333c0 129.603-105.064 234.667-234.667 234.667v0zM789.333 64h-554.667c-58.91 0-106.667 47.756-106.667 106.667v0 362.667h768v-362.667c0-58.91-47.756-106.667-106.667-106.667v0z" />
<glyph unicode="&#xe95b;" glyph-name="br_camera" d="M799.488 788.821l-106.368 137.941c-15.756 20.299-40.159 33.237-67.584 33.237h-227.072c-27.409-0.015-51.794-12.95-67.397-33.044l-0.144-0.193-106.411-137.941c-125.057-5.585-224.35-108.248-224.512-234.139v-384.016c0.146-129.544 105.122-234.521 234.653-234.667h554.681c129.544 0.146 234.521 105.122 234.667 234.653v384.014c-0.162 125.907-99.455 228.57-224.010 234.137l-0.502 0.018zM896 170.667c0-58.91-47.756-106.667-106.667-106.667v0h-554.667c-58.91 0-106.667 47.756-106.667 106.667v0 384c0 58.91 47.756 106.667 106.667 106.667v0h554.667c58.91 0 106.667-47.756 106.667-106.667v0zM512 597.333c-129.603 0-234.667-105.064-234.667-234.667s105.064-234.667 234.667-234.667c129.603 0 234.667 105.064 234.667 234.667v0c-0.146 129.544-105.122 234.521-234.653 234.667h-0.014zM512 256c-58.91 0-106.667 47.756-106.667 106.667s47.756 106.667 106.667 106.667c58.91 0 106.667-47.756 106.667-106.667v0c0-58.91-47.756-106.667-106.667-106.667v0z" />
<glyph unicode="&#xe95c;" glyph-name="br_caret_down" d="M273.664 576h476.672c23.56-0.005 42.658-19.106 42.658-42.667 0-11.78-4.774-22.445-12.492-30.165l-238.336-238.336c-7.721-7.718-18.386-12.492-30.165-12.492s-22.445 4.774-30.165 12.492l-238.336 238.336c-7.718 7.721-12.492 18.386-12.492 30.165 0 23.561 19.097 42.661 42.657 42.667h0.001z" />
<glyph unicode="&#xe95d;" glyph-name="br_caret_left" d="M567.168 166.997l-238.336 238.336c-7.718 7.721-12.492 18.386-12.492 30.165s4.774 22.445 12.492 30.165l238.336 238.336c7.721 7.718 18.386 12.492 30.165 12.492 23.561 0 42.661-19.097 42.667-42.657v-476.673c-0.005-23.56-19.106-42.658-42.667-42.658-11.78 0-22.445 4.774-30.165 12.492v0z" />
<glyph unicode="&#xe95e;" glyph-name="br_caret_right" d="M384 197.163v476.672c0.005 23.56 19.106 42.658 42.667 42.658 11.78 0 22.445-4.774 30.165-12.492l238.336-238.336c7.718-7.721 12.492-18.386 12.492-30.165s-4.774-22.445-12.492-30.165l-238.336-238.336c-7.721-7.718-18.386-12.492-30.165-12.492-23.561 0-42.661 19.097-42.667 42.657v0.001z" />
<glyph unicode="&#xe95f;" glyph-name="br_caret_up" d="M273.664 294.997h476.672c23.56 0.005 42.658 19.106 42.658 42.667 0 11.78-4.774 22.445-12.492 30.165l-238.336 238.336c-7.721 7.718-18.386 12.492-30.165 12.492s-22.445-4.774-30.165-12.492l-238.336-238.336c-7.718-7.721-12.492-18.386-12.492-30.165 0-23.561 19.097-42.661 42.657-42.667h0.001z" />
<glyph unicode="&#xe960;" glyph-name="br_check" d="M332.8 45.867c-0.014 0-0.030 0-0.046 0-29.981 0-57.121 12.165-76.753 31.828l-232.193 232.108c-11.578 11.581-18.738 27.578-18.738 45.248s7.161 33.667 18.739 45.248v0c11.581 11.578 27.578 18.738 45.248 18.738s33.667-7.161 45.248-18.739l218.496-218.496 578.048 578.048c11.581 11.578 27.578 18.738 45.248 18.738s33.667-7.161 45.248-18.739v0c11.578-11.581 18.738-27.578 18.738-45.248s-7.161-33.667-18.739-45.248l-591.744-591.658c-19.633-19.664-46.773-31.829-76.754-31.829-0.016 0-0.032 0-0.048 0h0.002z" />
<glyph unicode="&#xe961;" glyph-name="br_checkbox" d="M789.333-64h-554.667c-129.544 0.146-234.521 105.122-234.667 234.653v554.681c0.146 129.544 105.122 234.521 234.653 234.667h554.681c129.544-0.146 234.521-105.122 234.667-234.653v-554.681c-0.146-129.544-105.122-234.521-234.653-234.667h-0.014zM234.667 832c-58.91 0-106.667-47.756-106.667-106.667v0-554.667c0-58.91 47.756-106.667 106.667-106.667v0h554.667c58.91 0 106.667 47.756 106.667 106.667v0 554.667c0 58.91-47.756 106.667-106.667 106.667v0zM412.459 201.088c-0.021 0-0.046 0-0.071 0-28.003 0-53.338 11.421-71.601 29.859l-0.008 0.008-127.445 127.232c-11.59 11.583-18.76 27.589-18.76 45.269s7.169 33.686 18.759 45.269v0c11.581 11.578 27.578 18.738 45.248 18.738s33.667-7.161 45.248-18.739l108.629-108.586 307.712 307.712c11.581 11.578 27.578 18.738 45.248 18.738s33.667-7.161 45.248-18.739v0c11.59-11.583 18.76-27.589 18.76-45.269s-7.169-33.686-18.759-45.269l-326.571-326.571c-18.238-18.318-43.476-29.654-71.362-29.654-0.097 0-0.194 0-0.29 0h0.015z" />
<glyph unicode="&#xe962;" glyph-name="br_chess" d="M832 64h-21.333v27.947c-0.202 54.070-22.648 102.858-58.657 137.721l-0.052 0.050c-67.32 64.978-109.123 156.009-109.123 256.804 0 1.458 0.009 2.913 0.026 4.367l-0.002-0.222h39.808c35.346 0 64 28.654 64 64s-28.654 64-64 64v0h-30.805c19.874 27.359 31.814 61.602 31.872 98.631v0.014c-10.099 71.177-35.476 134.937-72.734 190.001l1.011-1.585c-21.012 32.826-57.287 54.272-98.571 54.272-0.116 0-0.232 0-0.348-0.001h0.018c-0.119 0-0.259 0.001-0.4 0.001-41.264 0-77.518-21.449-98.221-53.805l-0.28-0.467c-36.286-53.469-61.681-117.234-71.486-186.023l-0.28-2.393c0.053-37.050 12.011-71.297 32.252-99.132l-0.337 0.486h-11.691c-35.346 0-64-28.654-64-64s28.654-64 64-64v0h19.499c0.007-0.839 0.011-1.831 0.011-2.824 0-101.406-42.225-192.949-110.052-258.007l-0.124-0.119c-36.034-34.926-58.461-83.709-58.667-137.732v-27.986h-21.333c-35.346 0-64-28.654-64-64s28.654-64 64-64v0h640c35.346 0 64 28.654 64 64s-28.654 64-64 64v0zM514.475 490.667c0.132-132.529 52.395-252.825 137.384-341.509l-0.168 0.176h-279.381c85.205 88.375 137.826 208.669 138.24 341.252v0.081z" />
<glyph unicode="&#xe963;" glyph-name="br_circle" d="M512 960c-282.77 0-512-229.23-512-512s229.23-512 512-512c282.77 0 512 229.23 512 512v0c-0.316 282.643-229.358 511.685-511.97 512h-0.030zM512 64c-212.077 0-384 171.923-384 384s171.923 384 384 384c212.077 0 384-171.923 384-384v0c-0.243-211.98-172.021-383.758-383.977-384h-0.023z" />
<glyph unicode="&#xe964;" glyph-name="br_circle_small" d="M512 768c-176.731 0-320-143.269-320-320s143.269-320 320-320c176.731 0 320 143.269 320 320v0c-0.194 176.653-143.347 319.806-319.981 320h-0.019zM512 256c-106.039 0-192 85.961-192 192s85.961 192 192 192c106.039 0 192-85.961 192-192v0c-0.121-105.99-86.010-191.879-191.989-192h-0.011z" />
<glyph unicode="&#xe965;" glyph-name="br_clip" d="M436.011-61.099c-0.153 0-0.333 0-0.514 0-106.846 0-203.721 42.689-274.501 111.942l0.071-0.069c-70.15 72.817-113.364 172.009-113.364 281.294 0 112.662 45.925 214.597 120.076 288.106l247.069 247.026c52.776 54.252 126.48 87.91 208.046 87.91 64.596 0 124.261-21.11 172.473-56.807l-0.786 0.556c67.788-52.411 111.015-133.753 111.015-225.191 0-78.271-31.674-149.144-82.904-200.5l-258.511-258.511c-28.252-29.502-66.086-49.626-108.487-55.361l-0.953-0.105c-5.658-0.656-12.213-1.030-18.857-1.030-52.209 0-99.021 23.108-130.766 59.655l-0.181 0.212c-24.351 30.964-39.054 70.514-39.054 113.498 0 50.576 20.356 96.397 53.321 129.718l197.061 196.891c11.581 11.578 27.578 18.738 45.248 18.738s33.667-7.161 45.248-18.739v0c11.578-11.581 18.738-27.578 18.738-45.248s-7.161-33.667-18.739-45.248l-203.136-203.178c-8.279-8.284-13.399-19.725-13.399-32.363 0-25.285 20.498-45.783 45.783-45.783 12.648 0 24.098 5.129 32.384 13.42l260.864 260.822c29.611 28.815 47.982 69.052 47.982 113.58 0 31.204-9.022 60.301-24.599 84.825l0.383-0.645c-28.217 42.995-76.204 70.994-130.73 70.994-42.912 0-81.774-17.342-109.959-45.399l-257.445-257.658c-50.825-49.393-82.362-118.401-82.362-194.774 0-60.513 19.798-116.401 53.269-161.542l-0.519 0.732c49.048-63.431 125.166-103.88 210.731-103.88 73.257 0 139.59 29.649 187.652 77.602l203.174 203.131c11.581 11.578 27.578 18.738 45.248 18.738s33.667-7.161 45.248-18.739v0c11.578-11.581 18.738-27.578 18.738-45.248s-7.161-33.667-18.739-45.248l-203.178-203.136c-70.959-71.042-169.031-114.987-277.368-114.987-0.273 0-0.546 0-0.818 0.001h0.042z" />
<glyph unicode="&#xe966;" glyph-name="br_clock" d="M512 960c-282.77 0-512-229.23-512-512s229.23-512 512-512c282.77 0 512 229.23 512 512v0c-0.316 282.643-229.358 511.685-511.97 512h-0.030zM512 64c-212.077 0-384 171.923-384 384s171.923 384 384 384c212.077 0 384-171.923 384-384v0c-0.243-211.98-172.021-383.758-383.977-384h-0.023zM448 488.32l-102.4-64c-18.158-11.502-30.038-31.486-30.038-54.246 0-12.598 3.64-24.346 9.926-34.25l-0.155 0.261c11.502-18.158 31.486-30.038 54.246-30.038 12.598 0 24.346 3.64 34.25 9.926l-0.261-0.155 122.411 76.8c24.195 15.339 40.022 41.976 40.022 72.309 0 0.079 0 0.157 0 0.236v-0.012 163.243c0 35.346-28.654 64-64 64v0 0c-35.346 0-64-28.654-64-64v0z" />
<glyph unicode="&#xe967;" glyph-name="br_cloud" d="M956.544 533.333c-46.327 62.414-111.506 108.517-187.037 130.080l-2.489 0.608c-21.534 76.483-66.059 140.579-125.536 186.132l-0.843 0.62c-57.769 44.019-130.951 70.524-210.324 70.524-192.684 0-348.885-156.201-348.885-348.885 0-50.809 10.861-99.081 30.388-142.621l-0.885 2.208c-67.398-44.743-111.223-120.316-111.223-206.126 0-22.575 3.033-44.442 8.715-65.215l-0.403 1.73c29.892-106.769 126.335-183.769 240.762-183.769 1.697 0 3.391 0.017 5.080 0.051l-0.253-0.004h411.136c1.934-0.038 4.214-0.060 6.5-0.060 172.269 0 315.773 123.153 347.276 286.221l0.358 2.223c3.385 18.193 5.32 39.125 5.32 60.51 0 77.455-25.396 148.979-68.314 206.699l0.658-0.926zM892.544 288.725c-22.451-104.72-114.224-182.089-224.068-182.089-1.311 0-2.62 0.011-3.926 0.033l0.196-0.003h-411.136c-1.019-0.030-2.217-0.047-3.419-0.047-55.215 0-101.956 36.278-117.688 86.299l-0.237 0.874c-2.663 9.408-4.194 20.213-4.194 31.375 0 55.34 37.627 101.891 88.693 115.466l0.834 0.189c27.814 7.366 47.982 32.309 47.982 61.963 0 14.344-4.719 27.586-12.689 38.258l0.12-0.168c-27.232 36.282-43.608 82.071-43.608 131.684 0 110.287 80.921 201.674 186.629 218.026l1.235 0.157c9.937 1.505 21.415 2.373 33.093 2.389h0.017c0.195 0.001 0.426 0.001 0.657 0.001 49.968 0 96.033-16.711 132.911-44.85l-0.533 0.39c45.878-35.038 77.5-86.727 85.837-145.895l0.136-1.177c3.931-28.615 26.303-51.001 54.577-54.917l0.335-0.038c61.478-8.831 113.971-41.606 148.607-88.398l0.428-0.605c26.683-35.972 42.714-81.239 42.714-130.25 0-13.651-1.244-27.011-3.624-39.974l0.206 1.35z" />
<glyph unicode="&#xe968;" glyph-name="br_cloud_check" d="M497.963-64c-0.015 0-0.034 0-0.052 0-41.168 0-78.431 16.716-105.374 43.73l-0.003 0.003-144.64 145.877c-11.462 11.562-18.545 27.482-18.545 45.056 0 35.35 28.656 64.006 64.006 64.006 17.776 0 33.859-7.246 45.457-18.946l0.005-0.005 144.427-145.664c3.845-3.771 9.117-6.098 14.933-6.098s11.088 2.327 14.937 6.102l230.994 231.037c11.585 11.585 27.591 18.751 45.269 18.751 35.358 0 64.021-28.663 64.021-64.021 0-17.679-7.166-33.684-18.751-45.269l-231.040-230.997c-26.929-26.916-64.124-43.563-105.207-43.563-0.153 0-0.306 0-0.459 0.001h0.024zM88.96 153.6c26.724 8.675 45.704 33.353 45.704 62.463 0 6.632-0.985 13.034-2.817 19.068l0.121-0.464c-2.333 8.763-3.673 18.824-3.673 29.198 0 45.936 26.273 85.736 64.612 105.191l0.672 0.309c33.402 18.257 55.679 53.144 55.679 93.234 0 18.274-4.629 35.467-12.777 50.47l0.277-0.557c-14.848 28.717-23.554 62.683-23.554 98.682 0 14.902 1.492 29.455 4.334 43.519l-0.236-1.401c16.956 90.469 88.565 160.248 178.629 174.266l1.211 0.155c9.976 1.589 21.479 2.497 33.194 2.497 50.386 0 96.848-16.796 134.095-45.094l-0.548 0.399c45.742-34.561 77.208-85.924 85.208-144.749l0.126-1.128c3.944-28.652 26.377-51.055 54.708-54.918l0.332-0.037c108.682-14.809 191.541-107.024 191.541-218.591 0-6.334-0.267-12.606-0.791-18.805l0.055 0.809v-2.261c-0.099-1.315-0.155-2.849-0.155-4.397 0-33.384 26.153-60.659 59.088-62.455l0.16-0.007c1.037-0.059 2.251-0.092 3.472-0.092 34.455 0 62.7 26.589 65.335 60.368l0.014 0.226c0.659 8.034 1.035 17.39 1.035 26.834 0 159.883-107.745 294.601-254.586 335.506l-2.449 0.582c-21.218 76.024-65.626 139.678-125 184.587l-0.867 0.629c-57.896 44.2-131.275 70.819-210.871 70.819-18.108 0-35.894-1.378-53.259-4.034l1.943 0.245c-145.649-22.271-260.050-133.357-287.022-275.404l-0.338-2.143c-4.057-19.881-6.379-42.732-6.379-66.125 0-50.561 10.847-98.589 30.341-141.883l-0.879 2.184c-69.147-44.261-114.324-120.673-114.324-207.636 0-21.625 2.793-42.597 8.039-62.576l-0.382 1.711 2.005-7.424c7.697-25.946 31.325-44.548 59.297-44.548 0.258 0 0.516 0.002 0.774 0.005h-0.039c6.761 0.021 13.277 1.033 19.422 2.898l-0.478-0.125z" />
</font>
</defs>
</svg>
