<?xml version="1.0" standalone="no"?>
<!DOCTYPE svg PUBLIC "-//W3C//DTD SVG 20010904//EN"
 "http://www.w3.org/TR/2001/REC-SVG-20010904/DTD/svg10.dtd">
<svg version="1.0" xmlns="http://www.w3.org/2000/svg"
 width="452.000000pt" height="452.000000pt" viewBox="0 0 452.000000 452.000000"
 preserveAspectRatio="xMidYMid meet">
<metadata>
Created by potrace 1.14, written by Peter Selinger 2001-2017
</metadata>
<g transform="translate(0.000000,452.000000) scale(0.100000,-0.100000)"
fill="#000000" stroke="none">
<path d="M2286 4302 c-26 -114 -49 -214 -51 -222 -2 -8 -10 -44 -19 -80 -22
-92 -23 -90 32 -90 26 -1 66 -5 89 -9 l41 -8 -3 41 c-2 23 -6 91 -9 151 -4 61
-8 133 -11 160 -2 28 -7 97 -10 155 -4 58 -7 106 -9 107 -1 1 -24 -91 -50
-205z"/>
<path d="M1744 4385 c3 -11 22 -72 41 -135 36 -117 98 -316 117 -380 6 -19 14
-39 18 -43 4 -4 29 3 56 17 27 13 61 28 77 31 15 4 27 11 27 15 0 8 -289 447
-323 490 -16 21 -18 21 -13 5z"/>
<path d="M2820 4219 c-47 -50 -104 -112 -128 -138 -115 -123 -197 -214 -200
-220 -1 -3 17 -16 41 -29 23 -12 55 -33 71 -47 16 -14 30 -24 32 -23 1 2 57
113 124 248 66 135 128 257 136 273 8 15 14 27 12 27 -2 0 -42 -41 -88 -91z"/>
<path d="M1304 3985 c32 -28 217 -200 334 -310 79 -75 92 -84 92 -64 0 12 62
95 87 116 18 14 32 5 -201 120 -105 51 -198 98 -206 103 -22 14 -121 60 -129
60 -3 0 7 -11 23 -25z"/>
<path d="M2140 3849 c-264 -51 -446 -282 -436 -554 3 -96 22 -175 41 -175 7 0
20 9 30 20 33 36 189 134 321 201 152 77 344 154 499 200 61 18 112 34 114 36
13 8 -29 68 -88 125 -132 127 -306 181 -481 147z"/>
<path d="M3220 3825 c-41 -13 -167 -51 -280 -85 -113 -34 -208 -65 -211 -68
-4 -4 4 -23 17 -44 l23 -36 98 24 c54 13 109 28 123 32 20 7 292 181 309 198
6 6 4 5 -79 -21z"/>
<path d="M3345 3660 c-22 -4 -62 -11 -90 -15 -190 -25 -678 -149 -792 -201
-17 -8 -36 -14 -42 -14 -5 0 -63 -23 -128 -51 -289 -125 -471 -241 -619 -395
-67 -69 -174 -220 -174 -244 0 -9 -4 -20 -9 -25 -27 -28 -43 -199 -27 -297 33
-204 206 -432 486 -639 19 -14 42 -29 50 -33 8 -4 2 3 -15 15 -43 32 -166 157
-204 206 -46 60 -109 200 -116 258 -4 28 -8 60 -10 71 -4 29 20 151 40 199 76
181 325 400 585 516 214 95 596 203 825 233 120 16 206 26 255 30 30 3 56 6
58 6 1 0 2 88 2 195 0 218 7 201 -75 185z"/>
<path d="M1547 3474 c-1 -1 -58 -5 -127 -9 -69 -4 -141 -9 -160 -10 -19 -2
-63 -4 -97 -5 -35 -2 -63 -6 -63 -10 0 -4 26 -12 58 -19 31 -7 93 -21 137 -32
44 -11 89 -21 100 -23 11 -2 71 -16 134 -30 62 -14 115 -26 116 -26 1 0 5 27
8 60 4 33 9 71 13 85 6 24 5 24 -56 22 -34 -1 -62 -3 -63 -3z"/>
<path d="M1425 3009 c-132 -87 -235 -159 -228 -159 7 0 32 6 55 14 24 8 97 30
163 51 66 20 132 40 147 45 15 5 52 34 82 65 l55 56 -17 44 -17 43 -240 -159z"/>
<path d="M2521 2858 c-55 -142 -284 -718 -290 -733 -5 -11 -30 -74 -56 -140
-26 -66 -56 -142 -66 -168 l-19 -48 194 3 c107 1 197 1 199 -2 4 -4 -31 -103
-92 -265 -11 -27 -54 -147 -96 -265 -105 -291 -138 -383 -168 -465 -45 -122
-43 -118 151 210 55 94 108 184 118 202 56 95 199 339 337 575 86 147 157 268
157 270 0 2 -79 3 -175 3 -96 0 -175 3 -175 8 0 7 88 221 125 302 26 58 225
527 225 531 0 2 -81 4 -180 4 -178 0 -181 0 -189 -22z"/>
<path d="M3000 1955 c8 -11 21 -26 27 -33 84 -89 181 -257 208 -362 19 -69 23
-98 23 -162 1 -166 -63 -302 -210 -444 -235 -228 -724 -434 -1403 -591 -11 -2
-24 -5 -30 -7 -5 -1 -31 -6 -57 -11 l-48 -7 0 -171 0 -170 90 7 c50 4 114 11
143 16 28 5 71 12 94 15 65 7 309 61 412 90 555 156 914 380 1115 698 48 76
74 137 91 216 16 79 12 225 -9 304 -37 136 -141 313 -259 442 -64 70 -215 207
-187 170z"/>
</g>
</svg>
